<?xml version="1.0" encoding="utf-8" standalone="no"?>
<!DOCTYPE svg PUBLIC "-//W3C//DTD SVG 1.1//EN"
  "http://www.w3.org/Graphics/SVG/1.1/DTD/svg11.dtd">
<!-- Created with matplotlib (https://matplotlib.org/) -->
<svg height="432pt" version="1.1" viewBox="0 0 864 432" width="864pt" xmlns="http://www.w3.org/2000/svg" xmlns:xlink="http://www.w3.org/1999/xlink">
 <metadata>
  <rdf:RDF xmlns:cc="http://creativecommons.org/ns#" xmlns:dc="http://purl.org/dc/elements/1.1/" xmlns:rdf="http://www.w3.org/1999/02/22-rdf-syntax-ns#">
   <cc:Work>
    <dc:type rdf:resource="http://purl.org/dc/dcmitype/StillImage"/>
    <dc:date>2020-09-24T10:31:39.981197</dc:date>
    <dc:format>image/svg+xml</dc:format>
    <dc:creator>
     <cc:Agent>
      <dc:title>Matplotlib v3.3.1, https://matplotlib.org/</dc:title>
     </cc:Agent>
    </dc:creator>
   </cc:Work>
  </rdf:RDF>
 </metadata>
 <defs>
  <style type="text/css">*{stroke-linecap:butt;stroke-linejoin:round;}</style>
 </defs>
 <g id="figure_1">
  <g id="patch_1">
   <path d="M 0 432 
L 864 432 
L 864 0 
L 0 0 
z
" style="fill:#ffffff;"/>
  </g>
  <g id="axes_1">
   <g id="patch_2">
    <path d="M 63.92 335.5 
L 796.2 335.5 
L 796.2 25.44 
L 63.92 25.44 
z
" style="fill:#ffffff;"/>
   </g>
   <g id="matplotlib.axis_1">
    <g id="xtick_1">
     <g id="line2d_1">
      <defs>
       <path d="M 0 0 
L 0 3.5 
" id="m3d7934bae3" style="stroke:#000000;stroke-width:0.8;"/>
      </defs>
      <g>
       <use style="stroke:#000000;stroke-width:0.8;" x="97.205455" xlink:href="#m3d7934bae3" y="335.5"/>
      </g>
     </g>
     <g id="text_1">
      <!-- 2020-03-01 -->
      <g transform="translate(99.96483 400.615625)rotate(-90)scale(0.1 -0.1)">
       <defs>
        <path d="M 19.1875 8.296875 
L 53.609375 8.296875 
L 53.609375 0 
L 7.328125 0 
L 7.328125 8.296875 
Q 12.9375 14.109375 22.625 23.890625 
Q 32.328125 33.6875 34.8125 36.53125 
Q 39.546875 41.84375 41.421875 45.53125 
Q 43.3125 49.21875 43.3125 52.78125 
Q 43.3125 58.59375 39.234375 62.25 
Q 35.15625 65.921875 28.609375 65.921875 
Q 23.96875 65.921875 18.8125 64.3125 
Q 13.671875 62.703125 7.8125 59.421875 
L 7.8125 69.390625 
Q 13.765625 71.78125 18.9375 73 
Q 24.125 74.21875 28.421875 74.21875 
Q 39.75 74.21875 46.484375 68.546875 
Q 53.21875 62.890625 53.21875 53.421875 
Q 53.21875 48.921875 51.53125 44.890625 
Q 49.859375 40.875 45.40625 35.40625 
Q 44.1875 33.984375 37.640625 27.21875 
Q 31.109375 20.453125 19.1875 8.296875 
z
" id="DejaVuSans-50"/>
        <path d="M 31.78125 66.40625 
Q 24.171875 66.40625 20.328125 58.90625 
Q 16.5 51.421875 16.5 36.375 
Q 16.5 21.390625 20.328125 13.890625 
Q 24.171875 6.390625 31.78125 6.390625 
Q 39.453125 6.390625 43.28125 13.890625 
Q 47.125 21.390625 47.125 36.375 
Q 47.125 51.421875 43.28125 58.90625 
Q 39.453125 66.40625 31.78125 66.40625 
z
M 31.78125 74.21875 
Q 44.046875 74.21875 50.515625 64.515625 
Q 56.984375 54.828125 56.984375 36.375 
Q 56.984375 17.96875 50.515625 8.265625 
Q 44.046875 -1.421875 31.78125 -1.421875 
Q 19.53125 -1.421875 13.0625 8.265625 
Q 6.59375 17.96875 6.59375 36.375 
Q 6.59375 54.828125 13.0625 64.515625 
Q 19.53125 74.21875 31.78125 74.21875 
z
" id="DejaVuSans-48"/>
        <path d="M 4.890625 31.390625 
L 31.203125 31.390625 
L 31.203125 23.390625 
L 4.890625 23.390625 
z
" id="DejaVuSans-45"/>
        <path d="M 40.578125 39.3125 
Q 47.65625 37.796875 51.625 33 
Q 55.609375 28.21875 55.609375 21.1875 
Q 55.609375 10.40625 48.1875 4.484375 
Q 40.765625 -1.421875 27.09375 -1.421875 
Q 22.515625 -1.421875 17.65625 -0.515625 
Q 12.796875 0.390625 7.625 2.203125 
L 7.625 11.71875 
Q 11.71875 9.328125 16.59375 8.109375 
Q 21.484375 6.890625 26.8125 6.890625 
Q 36.078125 6.890625 40.9375 10.546875 
Q 45.796875 14.203125 45.796875 21.1875 
Q 45.796875 27.640625 41.28125 31.265625 
Q 36.765625 34.90625 28.71875 34.90625 
L 20.21875 34.90625 
L 20.21875 43.015625 
L 29.109375 43.015625 
Q 36.375 43.015625 40.234375 45.921875 
Q 44.09375 48.828125 44.09375 54.296875 
Q 44.09375 59.90625 40.109375 62.90625 
Q 36.140625 65.921875 28.71875 65.921875 
Q 24.65625 65.921875 20.015625 65.03125 
Q 15.375 64.15625 9.8125 62.3125 
L 9.8125 71.09375 
Q 15.4375 72.65625 20.34375 73.4375 
Q 25.25 74.21875 29.59375 74.21875 
Q 40.828125 74.21875 47.359375 69.109375 
Q 53.90625 64.015625 53.90625 55.328125 
Q 53.90625 49.265625 50.4375 45.09375 
Q 46.96875 40.921875 40.578125 39.3125 
z
" id="DejaVuSans-51"/>
        <path d="M 12.40625 8.296875 
L 28.515625 8.296875 
L 28.515625 63.921875 
L 10.984375 60.40625 
L 10.984375 69.390625 
L 28.421875 72.90625 
L 38.28125 72.90625 
L 38.28125 8.296875 
L 54.390625 8.296875 
L 54.390625 0 
L 12.40625 0 
z
" id="DejaVuSans-49"/>
       </defs>
       <use xlink:href="#DejaVuSans-50"/>
       <use x="63.623047" xlink:href="#DejaVuSans-48"/>
       <use x="127.246094" xlink:href="#DejaVuSans-50"/>
       <use x="190.869141" xlink:href="#DejaVuSans-48"/>
       <use x="254.492188" xlink:href="#DejaVuSans-45"/>
       <use x="290.576172" xlink:href="#DejaVuSans-48"/>
       <use x="354.199219" xlink:href="#DejaVuSans-51"/>
       <use x="417.822266" xlink:href="#DejaVuSans-45"/>
       <use x="453.90625" xlink:href="#DejaVuSans-48"/>
       <use x="517.529297" xlink:href="#DejaVuSans-49"/>
      </g>
     </g>
    </g>
    <g id="xtick_2">
     <g id="line2d_2">
      <g>
       <use style="stroke:#000000;stroke-width:0.8;" x="110.131845" xlink:href="#m3d7934bae3" y="335.5"/>
      </g>
     </g>
     <g id="text_2">
      <!-- 2020-03-05 -->
      <g transform="translate(112.89122 400.615625)rotate(-90)scale(0.1 -0.1)">
       <defs>
        <path d="M 10.796875 72.90625 
L 49.515625 72.90625 
L 49.515625 64.59375 
L 19.828125 64.59375 
L 19.828125 46.734375 
Q 21.96875 47.46875 24.109375 47.828125 
Q 26.265625 48.1875 28.421875 48.1875 
Q 40.625 48.1875 47.75 41.5 
Q 54.890625 34.8125 54.890625 23.390625 
Q 54.890625 11.625 47.5625 5.09375 
Q 40.234375 -1.421875 26.90625 -1.421875 
Q 22.3125 -1.421875 17.546875 -0.640625 
Q 12.796875 0.140625 7.71875 1.703125 
L 7.71875 11.625 
Q 12.109375 9.234375 16.796875 8.0625 
Q 21.484375 6.890625 26.703125 6.890625 
Q 35.15625 6.890625 40.078125 11.328125 
Q 45.015625 15.765625 45.015625 23.390625 
Q 45.015625 31 40.078125 35.4375 
Q 35.15625 39.890625 26.703125 39.890625 
Q 22.75 39.890625 18.8125 39.015625 
Q 14.890625 38.140625 10.796875 36.28125 
z
" id="DejaVuSans-53"/>
       </defs>
       <use xlink:href="#DejaVuSans-50"/>
       <use x="63.623047" xlink:href="#DejaVuSans-48"/>
       <use x="127.246094" xlink:href="#DejaVuSans-50"/>
       <use x="190.869141" xlink:href="#DejaVuSans-48"/>
       <use x="254.492188" xlink:href="#DejaVuSans-45"/>
       <use x="290.576172" xlink:href="#DejaVuSans-48"/>
       <use x="354.199219" xlink:href="#DejaVuSans-51"/>
       <use x="417.822266" xlink:href="#DejaVuSans-45"/>
       <use x="453.90625" xlink:href="#DejaVuSans-48"/>
       <use x="517.529297" xlink:href="#DejaVuSans-53"/>
      </g>
     </g>
    </g>
    <g id="xtick_3">
     <g id="line2d_3">
      <g>
       <use style="stroke:#000000;stroke-width:0.8;" x="123.058235" xlink:href="#m3d7934bae3" y="335.5"/>
      </g>
     </g>
     <g id="text_3">
      <!-- 2020-03-09 -->
      <g transform="translate(125.81761 400.615625)rotate(-90)scale(0.1 -0.1)">
       <defs>
        <path d="M 10.984375 1.515625 
L 10.984375 10.5 
Q 14.703125 8.734375 18.5 7.8125 
Q 22.3125 6.890625 25.984375 6.890625 
Q 35.75 6.890625 40.890625 13.453125 
Q 46.046875 20.015625 46.78125 33.40625 
Q 43.953125 29.203125 39.59375 26.953125 
Q 35.25 24.703125 29.984375 24.703125 
Q 19.046875 24.703125 12.671875 31.3125 
Q 6.296875 37.9375 6.296875 49.421875 
Q 6.296875 60.640625 12.9375 67.421875 
Q 19.578125 74.21875 30.609375 74.21875 
Q 43.265625 74.21875 49.921875 64.515625 
Q 56.59375 54.828125 56.59375 36.375 
Q 56.59375 19.140625 48.40625 8.859375 
Q 40.234375 -1.421875 26.421875 -1.421875 
Q 22.703125 -1.421875 18.890625 -0.6875 
Q 15.09375 0.046875 10.984375 1.515625 
z
M 30.609375 32.421875 
Q 37.25 32.421875 41.125 36.953125 
Q 45.015625 41.5 45.015625 49.421875 
Q 45.015625 57.28125 41.125 61.84375 
Q 37.25 66.40625 30.609375 66.40625 
Q 23.96875 66.40625 20.09375 61.84375 
Q 16.21875 57.28125 16.21875 49.421875 
Q 16.21875 41.5 20.09375 36.953125 
Q 23.96875 32.421875 30.609375 32.421875 
z
" id="DejaVuSans-57"/>
       </defs>
       <use xlink:href="#DejaVuSans-50"/>
       <use x="63.623047" xlink:href="#DejaVuSans-48"/>
       <use x="127.246094" xlink:href="#DejaVuSans-50"/>
       <use x="190.869141" xlink:href="#DejaVuSans-48"/>
       <use x="254.492188" xlink:href="#DejaVuSans-45"/>
       <use x="290.576172" xlink:href="#DejaVuSans-48"/>
       <use x="354.199219" xlink:href="#DejaVuSans-51"/>
       <use x="417.822266" xlink:href="#DejaVuSans-45"/>
       <use x="453.90625" xlink:href="#DejaVuSans-48"/>
       <use x="517.529297" xlink:href="#DejaVuSans-57"/>
      </g>
     </g>
    </g>
    <g id="xtick_4">
     <g id="line2d_4">
      <g>
       <use style="stroke:#000000;stroke-width:0.8;" x="135.984625" xlink:href="#m3d7934bae3" y="335.5"/>
      </g>
     </g>
     <g id="text_4">
      <!-- 2020-03-13 -->
      <g transform="translate(138.744 400.615625)rotate(-90)scale(0.1 -0.1)">
       <use xlink:href="#DejaVuSans-50"/>
       <use x="63.623047" xlink:href="#DejaVuSans-48"/>
       <use x="127.246094" xlink:href="#DejaVuSans-50"/>
       <use x="190.869141" xlink:href="#DejaVuSans-48"/>
       <use x="254.492188" xlink:href="#DejaVuSans-45"/>
       <use x="290.576172" xlink:href="#DejaVuSans-48"/>
       <use x="354.199219" xlink:href="#DejaVuSans-51"/>
       <use x="417.822266" xlink:href="#DejaVuSans-45"/>
       <use x="453.90625" xlink:href="#DejaVuSans-49"/>
       <use x="517.529297" xlink:href="#DejaVuSans-51"/>
      </g>
     </g>
    </g>
    <g id="xtick_5">
     <g id="line2d_5">
      <g>
       <use style="stroke:#000000;stroke-width:0.8;" x="148.911015" xlink:href="#m3d7934bae3" y="335.5"/>
      </g>
     </g>
     <g id="text_5">
      <!-- 2020-03-17 -->
      <g transform="translate(151.67039 400.615625)rotate(-90)scale(0.1 -0.1)">
       <defs>
        <path d="M 8.203125 72.90625 
L 55.078125 72.90625 
L 55.078125 68.703125 
L 28.609375 0 
L 18.3125 0 
L 43.21875 64.59375 
L 8.203125 64.59375 
z
" id="DejaVuSans-55"/>
       </defs>
       <use xlink:href="#DejaVuSans-50"/>
       <use x="63.623047" xlink:href="#DejaVuSans-48"/>
       <use x="127.246094" xlink:href="#DejaVuSans-50"/>
       <use x="190.869141" xlink:href="#DejaVuSans-48"/>
       <use x="254.492188" xlink:href="#DejaVuSans-45"/>
       <use x="290.576172" xlink:href="#DejaVuSans-48"/>
       <use x="354.199219" xlink:href="#DejaVuSans-51"/>
       <use x="417.822266" xlink:href="#DejaVuSans-45"/>
       <use x="453.90625" xlink:href="#DejaVuSans-49"/>
       <use x="517.529297" xlink:href="#DejaVuSans-55"/>
      </g>
     </g>
    </g>
    <g id="xtick_6">
     <g id="line2d_6">
      <g>
       <use style="stroke:#000000;stroke-width:0.8;" x="161.837405" xlink:href="#m3d7934bae3" y="335.5"/>
      </g>
     </g>
     <g id="text_6">
      <!-- 2020-03-21 -->
      <g transform="translate(164.59678 400.615625)rotate(-90)scale(0.1 -0.1)">
       <use xlink:href="#DejaVuSans-50"/>
       <use x="63.623047" xlink:href="#DejaVuSans-48"/>
       <use x="127.246094" xlink:href="#DejaVuSans-50"/>
       <use x="190.869141" xlink:href="#DejaVuSans-48"/>
       <use x="254.492188" xlink:href="#DejaVuSans-45"/>
       <use x="290.576172" xlink:href="#DejaVuSans-48"/>
       <use x="354.199219" xlink:href="#DejaVuSans-51"/>
       <use x="417.822266" xlink:href="#DejaVuSans-45"/>
       <use x="453.90625" xlink:href="#DejaVuSans-50"/>
       <use x="517.529297" xlink:href="#DejaVuSans-49"/>
      </g>
     </g>
    </g>
    <g id="xtick_7">
     <g id="line2d_7">
      <g>
       <use style="stroke:#000000;stroke-width:0.8;" x="174.763795" xlink:href="#m3d7934bae3" y="335.5"/>
      </g>
     </g>
     <g id="text_7">
      <!-- 2020-03-25 -->
      <g transform="translate(177.52317 400.615625)rotate(-90)scale(0.1 -0.1)">
       <use xlink:href="#DejaVuSans-50"/>
       <use x="63.623047" xlink:href="#DejaVuSans-48"/>
       <use x="127.246094" xlink:href="#DejaVuSans-50"/>
       <use x="190.869141" xlink:href="#DejaVuSans-48"/>
       <use x="254.492188" xlink:href="#DejaVuSans-45"/>
       <use x="290.576172" xlink:href="#DejaVuSans-48"/>
       <use x="354.199219" xlink:href="#DejaVuSans-51"/>
       <use x="417.822266" xlink:href="#DejaVuSans-45"/>
       <use x="453.90625" xlink:href="#DejaVuSans-50"/>
       <use x="517.529297" xlink:href="#DejaVuSans-53"/>
      </g>
     </g>
    </g>
    <g id="xtick_8">
     <g id="line2d_8">
      <g>
       <use style="stroke:#000000;stroke-width:0.8;" x="187.690185" xlink:href="#m3d7934bae3" y="335.5"/>
      </g>
     </g>
     <g id="text_8">
      <!-- 2020-03-29 -->
      <g transform="translate(190.44956 400.615625)rotate(-90)scale(0.1 -0.1)">
       <use xlink:href="#DejaVuSans-50"/>
       <use x="63.623047" xlink:href="#DejaVuSans-48"/>
       <use x="127.246094" xlink:href="#DejaVuSans-50"/>
       <use x="190.869141" xlink:href="#DejaVuSans-48"/>
       <use x="254.492188" xlink:href="#DejaVuSans-45"/>
       <use x="290.576172" xlink:href="#DejaVuSans-48"/>
       <use x="354.199219" xlink:href="#DejaVuSans-51"/>
       <use x="417.822266" xlink:href="#DejaVuSans-45"/>
       <use x="453.90625" xlink:href="#DejaVuSans-50"/>
       <use x="517.529297" xlink:href="#DejaVuSans-57"/>
      </g>
     </g>
    </g>
    <g id="xtick_9">
     <g id="line2d_9">
      <g>
       <use style="stroke:#000000;stroke-width:0.8;" x="200.616575" xlink:href="#m3d7934bae3" y="335.5"/>
      </g>
     </g>
     <g id="text_9">
      <!-- 2020-04-02 -->
      <g transform="translate(203.37595 400.615625)rotate(-90)scale(0.1 -0.1)">
       <defs>
        <path d="M 37.796875 64.3125 
L 12.890625 25.390625 
L 37.796875 25.390625 
z
M 35.203125 72.90625 
L 47.609375 72.90625 
L 47.609375 25.390625 
L 58.015625 25.390625 
L 58.015625 17.1875 
L 47.609375 17.1875 
L 47.609375 0 
L 37.796875 0 
L 37.796875 17.1875 
L 4.890625 17.1875 
L 4.890625 26.703125 
z
" id="DejaVuSans-52"/>
       </defs>
       <use xlink:href="#DejaVuSans-50"/>
       <use x="63.623047" xlink:href="#DejaVuSans-48"/>
       <use x="127.246094" xlink:href="#DejaVuSans-50"/>
       <use x="190.869141" xlink:href="#DejaVuSans-48"/>
       <use x="254.492188" xlink:href="#DejaVuSans-45"/>
       <use x="290.576172" xlink:href="#DejaVuSans-48"/>
       <use x="354.199219" xlink:href="#DejaVuSans-52"/>
       <use x="417.822266" xlink:href="#DejaVuSans-45"/>
       <use x="453.90625" xlink:href="#DejaVuSans-48"/>
       <use x="517.529297" xlink:href="#DejaVuSans-50"/>
      </g>
     </g>
    </g>
    <g id="xtick_10">
     <g id="line2d_10">
      <g>
       <use style="stroke:#000000;stroke-width:0.8;" x="213.542966" xlink:href="#m3d7934bae3" y="335.5"/>
      </g>
     </g>
     <g id="text_10">
      <!-- 2020-04-06 -->
      <g transform="translate(216.302341 400.615625)rotate(-90)scale(0.1 -0.1)">
       <defs>
        <path d="M 33.015625 40.375 
Q 26.375 40.375 22.484375 35.828125 
Q 18.609375 31.296875 18.609375 23.390625 
Q 18.609375 15.53125 22.484375 10.953125 
Q 26.375 6.390625 33.015625 6.390625 
Q 39.65625 6.390625 43.53125 10.953125 
Q 47.40625 15.53125 47.40625 23.390625 
Q 47.40625 31.296875 43.53125 35.828125 
Q 39.65625 40.375 33.015625 40.375 
z
M 52.59375 71.296875 
L 52.59375 62.3125 
Q 48.875 64.0625 45.09375 64.984375 
Q 41.3125 65.921875 37.59375 65.921875 
Q 27.828125 65.921875 22.671875 59.328125 
Q 17.53125 52.734375 16.796875 39.40625 
Q 19.671875 43.65625 24.015625 45.921875 
Q 28.375 48.1875 33.59375 48.1875 
Q 44.578125 48.1875 50.953125 41.515625 
Q 57.328125 34.859375 57.328125 23.390625 
Q 57.328125 12.15625 50.6875 5.359375 
Q 44.046875 -1.421875 33.015625 -1.421875 
Q 20.359375 -1.421875 13.671875 8.265625 
Q 6.984375 17.96875 6.984375 36.375 
Q 6.984375 53.65625 15.1875 63.9375 
Q 23.390625 74.21875 37.203125 74.21875 
Q 40.921875 74.21875 44.703125 73.484375 
Q 48.484375 72.75 52.59375 71.296875 
z
" id="DejaVuSans-54"/>
       </defs>
       <use xlink:href="#DejaVuSans-50"/>
       <use x="63.623047" xlink:href="#DejaVuSans-48"/>
       <use x="127.246094" xlink:href="#DejaVuSans-50"/>
       <use x="190.869141" xlink:href="#DejaVuSans-48"/>
       <use x="254.492188" xlink:href="#DejaVuSans-45"/>
       <use x="290.576172" xlink:href="#DejaVuSans-48"/>
       <use x="354.199219" xlink:href="#DejaVuSans-52"/>
       <use x="417.822266" xlink:href="#DejaVuSans-45"/>
       <use x="453.90625" xlink:href="#DejaVuSans-48"/>
       <use x="517.529297" xlink:href="#DejaVuSans-54"/>
      </g>
     </g>
    </g>
    <g id="xtick_11">
     <g id="line2d_11">
      <g>
       <use style="stroke:#000000;stroke-width:0.8;" x="226.469356" xlink:href="#m3d7934bae3" y="335.5"/>
      </g>
     </g>
     <g id="text_11">
      <!-- 2020-04-10 -->
      <g transform="translate(229.228731 400.615625)rotate(-90)scale(0.1 -0.1)">
       <use xlink:href="#DejaVuSans-50"/>
       <use x="63.623047" xlink:href="#DejaVuSans-48"/>
       <use x="127.246094" xlink:href="#DejaVuSans-50"/>
       <use x="190.869141" xlink:href="#DejaVuSans-48"/>
       <use x="254.492188" xlink:href="#DejaVuSans-45"/>
       <use x="290.576172" xlink:href="#DejaVuSans-48"/>
       <use x="354.199219" xlink:href="#DejaVuSans-52"/>
       <use x="417.822266" xlink:href="#DejaVuSans-45"/>
       <use x="453.90625" xlink:href="#DejaVuSans-49"/>
       <use x="517.529297" xlink:href="#DejaVuSans-48"/>
      </g>
     </g>
    </g>
    <g id="xtick_12">
     <g id="line2d_12">
      <g>
       <use style="stroke:#000000;stroke-width:0.8;" x="239.395746" xlink:href="#m3d7934bae3" y="335.5"/>
      </g>
     </g>
     <g id="text_12">
      <!-- 2020-04-14 -->
      <g transform="translate(242.155121 400.615625)rotate(-90)scale(0.1 -0.1)">
       <use xlink:href="#DejaVuSans-50"/>
       <use x="63.623047" xlink:href="#DejaVuSans-48"/>
       <use x="127.246094" xlink:href="#DejaVuSans-50"/>
       <use x="190.869141" xlink:href="#DejaVuSans-48"/>
       <use x="254.492188" xlink:href="#DejaVuSans-45"/>
       <use x="290.576172" xlink:href="#DejaVuSans-48"/>
       <use x="354.199219" xlink:href="#DejaVuSans-52"/>
       <use x="417.822266" xlink:href="#DejaVuSans-45"/>
       <use x="453.90625" xlink:href="#DejaVuSans-49"/>
       <use x="517.529297" xlink:href="#DejaVuSans-52"/>
      </g>
     </g>
    </g>
    <g id="xtick_13">
     <g id="line2d_13">
      <g>
       <use style="stroke:#000000;stroke-width:0.8;" x="252.322136" xlink:href="#m3d7934bae3" y="335.5"/>
      </g>
     </g>
     <g id="text_13">
      <!-- 2020-04-18 -->
      <g transform="translate(255.081511 400.615625)rotate(-90)scale(0.1 -0.1)">
       <defs>
        <path d="M 31.78125 34.625 
Q 24.75 34.625 20.71875 30.859375 
Q 16.703125 27.09375 16.703125 20.515625 
Q 16.703125 13.921875 20.71875 10.15625 
Q 24.75 6.390625 31.78125 6.390625 
Q 38.8125 6.390625 42.859375 10.171875 
Q 46.921875 13.96875 46.921875 20.515625 
Q 46.921875 27.09375 42.890625 30.859375 
Q 38.875 34.625 31.78125 34.625 
z
M 21.921875 38.8125 
Q 15.578125 40.375 12.03125 44.71875 
Q 8.5 49.078125 8.5 55.328125 
Q 8.5 64.0625 14.71875 69.140625 
Q 20.953125 74.21875 31.78125 74.21875 
Q 42.671875 74.21875 48.875 69.140625 
Q 55.078125 64.0625 55.078125 55.328125 
Q 55.078125 49.078125 51.53125 44.71875 
Q 48 40.375 41.703125 38.8125 
Q 48.828125 37.15625 52.796875 32.3125 
Q 56.78125 27.484375 56.78125 20.515625 
Q 56.78125 9.90625 50.3125 4.234375 
Q 43.84375 -1.421875 31.78125 -1.421875 
Q 19.734375 -1.421875 13.25 4.234375 
Q 6.78125 9.90625 6.78125 20.515625 
Q 6.78125 27.484375 10.78125 32.3125 
Q 14.796875 37.15625 21.921875 38.8125 
z
M 18.3125 54.390625 
Q 18.3125 48.734375 21.84375 45.5625 
Q 25.390625 42.390625 31.78125 42.390625 
Q 38.140625 42.390625 41.71875 45.5625 
Q 45.3125 48.734375 45.3125 54.390625 
Q 45.3125 60.0625 41.71875 63.234375 
Q 38.140625 66.40625 31.78125 66.40625 
Q 25.390625 66.40625 21.84375 63.234375 
Q 18.3125 60.0625 18.3125 54.390625 
z
" id="DejaVuSans-56"/>
       </defs>
       <use xlink:href="#DejaVuSans-50"/>
       <use x="63.623047" xlink:href="#DejaVuSans-48"/>
       <use x="127.246094" xlink:href="#DejaVuSans-50"/>
       <use x="190.869141" xlink:href="#DejaVuSans-48"/>
       <use x="254.492188" xlink:href="#DejaVuSans-45"/>
       <use x="290.576172" xlink:href="#DejaVuSans-48"/>
       <use x="354.199219" xlink:href="#DejaVuSans-52"/>
       <use x="417.822266" xlink:href="#DejaVuSans-45"/>
       <use x="453.90625" xlink:href="#DejaVuSans-49"/>
       <use x="517.529297" xlink:href="#DejaVuSans-56"/>
      </g>
     </g>
    </g>
    <g id="xtick_14">
     <g id="line2d_14">
      <g>
       <use style="stroke:#000000;stroke-width:0.8;" x="265.248526" xlink:href="#m3d7934bae3" y="335.5"/>
      </g>
     </g>
     <g id="text_14">
      <!-- 2020-04-22 -->
      <g transform="translate(268.007901 400.615625)rotate(-90)scale(0.1 -0.1)">
       <use xlink:href="#DejaVuSans-50"/>
       <use x="63.623047" xlink:href="#DejaVuSans-48"/>
       <use x="127.246094" xlink:href="#DejaVuSans-50"/>
       <use x="190.869141" xlink:href="#DejaVuSans-48"/>
       <use x="254.492188" xlink:href="#DejaVuSans-45"/>
       <use x="290.576172" xlink:href="#DejaVuSans-48"/>
       <use x="354.199219" xlink:href="#DejaVuSans-52"/>
       <use x="417.822266" xlink:href="#DejaVuSans-45"/>
       <use x="453.90625" xlink:href="#DejaVuSans-50"/>
       <use x="517.529297" xlink:href="#DejaVuSans-50"/>
      </g>
     </g>
    </g>
    <g id="xtick_15">
     <g id="line2d_15">
      <g>
       <use style="stroke:#000000;stroke-width:0.8;" x="278.174916" xlink:href="#m3d7934bae3" y="335.5"/>
      </g>
     </g>
     <g id="text_15">
      <!-- 2020-04-26 -->
      <g transform="translate(280.934291 400.615625)rotate(-90)scale(0.1 -0.1)">
       <use xlink:href="#DejaVuSans-50"/>
       <use x="63.623047" xlink:href="#DejaVuSans-48"/>
       <use x="127.246094" xlink:href="#DejaVuSans-50"/>
       <use x="190.869141" xlink:href="#DejaVuSans-48"/>
       <use x="254.492188" xlink:href="#DejaVuSans-45"/>
       <use x="290.576172" xlink:href="#DejaVuSans-48"/>
       <use x="354.199219" xlink:href="#DejaVuSans-52"/>
       <use x="417.822266" xlink:href="#DejaVuSans-45"/>
       <use x="453.90625" xlink:href="#DejaVuSans-50"/>
       <use x="517.529297" xlink:href="#DejaVuSans-54"/>
      </g>
     </g>
    </g>
    <g id="xtick_16">
     <g id="line2d_16">
      <g>
       <use style="stroke:#000000;stroke-width:0.8;" x="291.101306" xlink:href="#m3d7934bae3" y="335.5"/>
      </g>
     </g>
     <g id="text_16">
      <!-- 2020-04-30 -->
      <g transform="translate(293.860681 400.615625)rotate(-90)scale(0.1 -0.1)">
       <use xlink:href="#DejaVuSans-50"/>
       <use x="63.623047" xlink:href="#DejaVuSans-48"/>
       <use x="127.246094" xlink:href="#DejaVuSans-50"/>
       <use x="190.869141" xlink:href="#DejaVuSans-48"/>
       <use x="254.492188" xlink:href="#DejaVuSans-45"/>
       <use x="290.576172" xlink:href="#DejaVuSans-48"/>
       <use x="354.199219" xlink:href="#DejaVuSans-52"/>
       <use x="417.822266" xlink:href="#DejaVuSans-45"/>
       <use x="453.90625" xlink:href="#DejaVuSans-51"/>
       <use x="517.529297" xlink:href="#DejaVuSans-48"/>
      </g>
     </g>
    </g>
    <g id="xtick_17">
     <g id="line2d_17">
      <g>
       <use style="stroke:#000000;stroke-width:0.8;" x="304.027696" xlink:href="#m3d7934bae3" y="335.5"/>
      </g>
     </g>
     <g id="text_17">
      <!-- 2020-05-04 -->
      <g transform="translate(306.787071 400.615625)rotate(-90)scale(0.1 -0.1)">
       <use xlink:href="#DejaVuSans-50"/>
       <use x="63.623047" xlink:href="#DejaVuSans-48"/>
       <use x="127.246094" xlink:href="#DejaVuSans-50"/>
       <use x="190.869141" xlink:href="#DejaVuSans-48"/>
       <use x="254.492188" xlink:href="#DejaVuSans-45"/>
       <use x="290.576172" xlink:href="#DejaVuSans-48"/>
       <use x="354.199219" xlink:href="#DejaVuSans-53"/>
       <use x="417.822266" xlink:href="#DejaVuSans-45"/>
       <use x="453.90625" xlink:href="#DejaVuSans-48"/>
       <use x="517.529297" xlink:href="#DejaVuSans-52"/>
      </g>
     </g>
    </g>
    <g id="xtick_18">
     <g id="line2d_18">
      <g>
       <use style="stroke:#000000;stroke-width:0.8;" x="316.954086" xlink:href="#m3d7934bae3" y="335.5"/>
      </g>
     </g>
     <g id="text_18">
      <!-- 2020-05-08 -->
      <g transform="translate(319.713461 400.615625)rotate(-90)scale(0.1 -0.1)">
       <use xlink:href="#DejaVuSans-50"/>
       <use x="63.623047" xlink:href="#DejaVuSans-48"/>
       <use x="127.246094" xlink:href="#DejaVuSans-50"/>
       <use x="190.869141" xlink:href="#DejaVuSans-48"/>
       <use x="254.492188" xlink:href="#DejaVuSans-45"/>
       <use x="290.576172" xlink:href="#DejaVuSans-48"/>
       <use x="354.199219" xlink:href="#DejaVuSans-53"/>
       <use x="417.822266" xlink:href="#DejaVuSans-45"/>
       <use x="453.90625" xlink:href="#DejaVuSans-48"/>
       <use x="517.529297" xlink:href="#DejaVuSans-56"/>
      </g>
     </g>
    </g>
    <g id="xtick_19">
     <g id="line2d_19">
      <g>
       <use style="stroke:#000000;stroke-width:0.8;" x="329.880477" xlink:href="#m3d7934bae3" y="335.5"/>
      </g>
     </g>
     <g id="text_19">
      <!-- 2020-05-12 -->
      <g transform="translate(332.639852 400.615625)rotate(-90)scale(0.1 -0.1)">
       <use xlink:href="#DejaVuSans-50"/>
       <use x="63.623047" xlink:href="#DejaVuSans-48"/>
       <use x="127.246094" xlink:href="#DejaVuSans-50"/>
       <use x="190.869141" xlink:href="#DejaVuSans-48"/>
       <use x="254.492188" xlink:href="#DejaVuSans-45"/>
       <use x="290.576172" xlink:href="#DejaVuSans-48"/>
       <use x="354.199219" xlink:href="#DejaVuSans-53"/>
       <use x="417.822266" xlink:href="#DejaVuSans-45"/>
       <use x="453.90625" xlink:href="#DejaVuSans-49"/>
       <use x="517.529297" xlink:href="#DejaVuSans-50"/>
      </g>
     </g>
    </g>
    <g id="xtick_20">
     <g id="line2d_20">
      <g>
       <use style="stroke:#000000;stroke-width:0.8;" x="342.806867" xlink:href="#m3d7934bae3" y="335.5"/>
      </g>
     </g>
     <g id="text_20">
      <!-- 2020-05-16 -->
      <g transform="translate(345.566242 400.615625)rotate(-90)scale(0.1 -0.1)">
       <use xlink:href="#DejaVuSans-50"/>
       <use x="63.623047" xlink:href="#DejaVuSans-48"/>
       <use x="127.246094" xlink:href="#DejaVuSans-50"/>
       <use x="190.869141" xlink:href="#DejaVuSans-48"/>
       <use x="254.492188" xlink:href="#DejaVuSans-45"/>
       <use x="290.576172" xlink:href="#DejaVuSans-48"/>
       <use x="354.199219" xlink:href="#DejaVuSans-53"/>
       <use x="417.822266" xlink:href="#DejaVuSans-45"/>
       <use x="453.90625" xlink:href="#DejaVuSans-49"/>
       <use x="517.529297" xlink:href="#DejaVuSans-54"/>
      </g>
     </g>
    </g>
    <g id="xtick_21">
     <g id="line2d_21">
      <g>
       <use style="stroke:#000000;stroke-width:0.8;" x="355.733257" xlink:href="#m3d7934bae3" y="335.5"/>
      </g>
     </g>
     <g id="text_21">
      <!-- 2020-05-20 -->
      <g transform="translate(358.492632 400.615625)rotate(-90)scale(0.1 -0.1)">
       <use xlink:href="#DejaVuSans-50"/>
       <use x="63.623047" xlink:href="#DejaVuSans-48"/>
       <use x="127.246094" xlink:href="#DejaVuSans-50"/>
       <use x="190.869141" xlink:href="#DejaVuSans-48"/>
       <use x="254.492188" xlink:href="#DejaVuSans-45"/>
       <use x="290.576172" xlink:href="#DejaVuSans-48"/>
       <use x="354.199219" xlink:href="#DejaVuSans-53"/>
       <use x="417.822266" xlink:href="#DejaVuSans-45"/>
       <use x="453.90625" xlink:href="#DejaVuSans-50"/>
       <use x="517.529297" xlink:href="#DejaVuSans-48"/>
      </g>
     </g>
    </g>
    <g id="xtick_22">
     <g id="line2d_22">
      <g>
       <use style="stroke:#000000;stroke-width:0.8;" x="368.659647" xlink:href="#m3d7934bae3" y="335.5"/>
      </g>
     </g>
     <g id="text_22">
      <!-- 2020-05-24 -->
      <g transform="translate(371.419022 400.615625)rotate(-90)scale(0.1 -0.1)">
       <use xlink:href="#DejaVuSans-50"/>
       <use x="63.623047" xlink:href="#DejaVuSans-48"/>
       <use x="127.246094" xlink:href="#DejaVuSans-50"/>
       <use x="190.869141" xlink:href="#DejaVuSans-48"/>
       <use x="254.492188" xlink:href="#DejaVuSans-45"/>
       <use x="290.576172" xlink:href="#DejaVuSans-48"/>
       <use x="354.199219" xlink:href="#DejaVuSans-53"/>
       <use x="417.822266" xlink:href="#DejaVuSans-45"/>
       <use x="453.90625" xlink:href="#DejaVuSans-50"/>
       <use x="517.529297" xlink:href="#DejaVuSans-52"/>
      </g>
     </g>
    </g>
    <g id="xtick_23">
     <g id="line2d_23">
      <g>
       <use style="stroke:#000000;stroke-width:0.8;" x="381.586037" xlink:href="#m3d7934bae3" y="335.5"/>
      </g>
     </g>
     <g id="text_23">
      <!-- 2020-05-28 -->
      <g transform="translate(384.345412 400.615625)rotate(-90)scale(0.1 -0.1)">
       <use xlink:href="#DejaVuSans-50"/>
       <use x="63.623047" xlink:href="#DejaVuSans-48"/>
       <use x="127.246094" xlink:href="#DejaVuSans-50"/>
       <use x="190.869141" xlink:href="#DejaVuSans-48"/>
       <use x="254.492188" xlink:href="#DejaVuSans-45"/>
       <use x="290.576172" xlink:href="#DejaVuSans-48"/>
       <use x="354.199219" xlink:href="#DejaVuSans-53"/>
       <use x="417.822266" xlink:href="#DejaVuSans-45"/>
       <use x="453.90625" xlink:href="#DejaVuSans-50"/>
       <use x="517.529297" xlink:href="#DejaVuSans-56"/>
      </g>
     </g>
    </g>
    <g id="xtick_24">
     <g id="line2d_24">
      <g>
       <use style="stroke:#000000;stroke-width:0.8;" x="394.512427" xlink:href="#m3d7934bae3" y="335.5"/>
      </g>
     </g>
     <g id="text_24">
      <!-- 2020-06-01 -->
      <g transform="translate(397.271802 400.615625)rotate(-90)scale(0.1 -0.1)">
       <use xlink:href="#DejaVuSans-50"/>
       <use x="63.623047" xlink:href="#DejaVuSans-48"/>
       <use x="127.246094" xlink:href="#DejaVuSans-50"/>
       <use x="190.869141" xlink:href="#DejaVuSans-48"/>
       <use x="254.492188" xlink:href="#DejaVuSans-45"/>
       <use x="290.576172" xlink:href="#DejaVuSans-48"/>
       <use x="354.199219" xlink:href="#DejaVuSans-54"/>
       <use x="417.822266" xlink:href="#DejaVuSans-45"/>
       <use x="453.90625" xlink:href="#DejaVuSans-48"/>
       <use x="517.529297" xlink:href="#DejaVuSans-49"/>
      </g>
     </g>
    </g>
    <g id="xtick_25">
     <g id="line2d_25">
      <g>
       <use style="stroke:#000000;stroke-width:0.8;" x="407.438817" xlink:href="#m3d7934bae3" y="335.5"/>
      </g>
     </g>
     <g id="text_25">
      <!-- 2020-06-05 -->
      <g transform="translate(410.198192 400.615625)rotate(-90)scale(0.1 -0.1)">
       <use xlink:href="#DejaVuSans-50"/>
       <use x="63.623047" xlink:href="#DejaVuSans-48"/>
       <use x="127.246094" xlink:href="#DejaVuSans-50"/>
       <use x="190.869141" xlink:href="#DejaVuSans-48"/>
       <use x="254.492188" xlink:href="#DejaVuSans-45"/>
       <use x="290.576172" xlink:href="#DejaVuSans-48"/>
       <use x="354.199219" xlink:href="#DejaVuSans-54"/>
       <use x="417.822266" xlink:href="#DejaVuSans-45"/>
       <use x="453.90625" xlink:href="#DejaVuSans-48"/>
       <use x="517.529297" xlink:href="#DejaVuSans-53"/>
      </g>
     </g>
    </g>
    <g id="xtick_26">
     <g id="line2d_26">
      <g>
       <use style="stroke:#000000;stroke-width:0.8;" x="420.365207" xlink:href="#m3d7934bae3" y="335.5"/>
      </g>
     </g>
     <g id="text_26">
      <!-- 2020-06-09 -->
      <g transform="translate(423.124582 400.615625)rotate(-90)scale(0.1 -0.1)">
       <use xlink:href="#DejaVuSans-50"/>
       <use x="63.623047" xlink:href="#DejaVuSans-48"/>
       <use x="127.246094" xlink:href="#DejaVuSans-50"/>
       <use x="190.869141" xlink:href="#DejaVuSans-48"/>
       <use x="254.492188" xlink:href="#DejaVuSans-45"/>
       <use x="290.576172" xlink:href="#DejaVuSans-48"/>
       <use x="354.199219" xlink:href="#DejaVuSans-54"/>
       <use x="417.822266" xlink:href="#DejaVuSans-45"/>
       <use x="453.90625" xlink:href="#DejaVuSans-48"/>
       <use x="517.529297" xlink:href="#DejaVuSans-57"/>
      </g>
     </g>
    </g>
    <g id="xtick_27">
     <g id="line2d_27">
      <g>
       <use style="stroke:#000000;stroke-width:0.8;" x="433.291598" xlink:href="#m3d7934bae3" y="335.5"/>
      </g>
     </g>
     <g id="text_27">
      <!-- 2020-06-13 -->
      <g transform="translate(436.050973 400.615625)rotate(-90)scale(0.1 -0.1)">
       <use xlink:href="#DejaVuSans-50"/>
       <use x="63.623047" xlink:href="#DejaVuSans-48"/>
       <use x="127.246094" xlink:href="#DejaVuSans-50"/>
       <use x="190.869141" xlink:href="#DejaVuSans-48"/>
       <use x="254.492188" xlink:href="#DejaVuSans-45"/>
       <use x="290.576172" xlink:href="#DejaVuSans-48"/>
       <use x="354.199219" xlink:href="#DejaVuSans-54"/>
       <use x="417.822266" xlink:href="#DejaVuSans-45"/>
       <use x="453.90625" xlink:href="#DejaVuSans-49"/>
       <use x="517.529297" xlink:href="#DejaVuSans-51"/>
      </g>
     </g>
    </g>
    <g id="xtick_28">
     <g id="line2d_28">
      <g>
       <use style="stroke:#000000;stroke-width:0.8;" x="446.217988" xlink:href="#m3d7934bae3" y="335.5"/>
      </g>
     </g>
     <g id="text_28">
      <!-- 2020-06-17 -->
      <g transform="translate(448.977363 400.615625)rotate(-90)scale(0.1 -0.1)">
       <use xlink:href="#DejaVuSans-50"/>
       <use x="63.623047" xlink:href="#DejaVuSans-48"/>
       <use x="127.246094" xlink:href="#DejaVuSans-50"/>
       <use x="190.869141" xlink:href="#DejaVuSans-48"/>
       <use x="254.492188" xlink:href="#DejaVuSans-45"/>
       <use x="290.576172" xlink:href="#DejaVuSans-48"/>
       <use x="354.199219" xlink:href="#DejaVuSans-54"/>
       <use x="417.822266" xlink:href="#DejaVuSans-45"/>
       <use x="453.90625" xlink:href="#DejaVuSans-49"/>
       <use x="517.529297" xlink:href="#DejaVuSans-55"/>
      </g>
     </g>
    </g>
    <g id="xtick_29">
     <g id="line2d_29">
      <g>
       <use style="stroke:#000000;stroke-width:0.8;" x="459.144378" xlink:href="#m3d7934bae3" y="335.5"/>
      </g>
     </g>
     <g id="text_29">
      <!-- 2020-06-21 -->
      <g transform="translate(461.903753 400.615625)rotate(-90)scale(0.1 -0.1)">
       <use xlink:href="#DejaVuSans-50"/>
       <use x="63.623047" xlink:href="#DejaVuSans-48"/>
       <use x="127.246094" xlink:href="#DejaVuSans-50"/>
       <use x="190.869141" xlink:href="#DejaVuSans-48"/>
       <use x="254.492188" xlink:href="#DejaVuSans-45"/>
       <use x="290.576172" xlink:href="#DejaVuSans-48"/>
       <use x="354.199219" xlink:href="#DejaVuSans-54"/>
       <use x="417.822266" xlink:href="#DejaVuSans-45"/>
       <use x="453.90625" xlink:href="#DejaVuSans-50"/>
       <use x="517.529297" xlink:href="#DejaVuSans-49"/>
      </g>
     </g>
    </g>
    <g id="xtick_30">
     <g id="line2d_30">
      <g>
       <use style="stroke:#000000;stroke-width:0.8;" x="472.070768" xlink:href="#m3d7934bae3" y="335.5"/>
      </g>
     </g>
     <g id="text_30">
      <!-- 2020-06-25 -->
      <g transform="translate(474.830143 400.615625)rotate(-90)scale(0.1 -0.1)">
       <use xlink:href="#DejaVuSans-50"/>
       <use x="63.623047" xlink:href="#DejaVuSans-48"/>
       <use x="127.246094" xlink:href="#DejaVuSans-50"/>
       <use x="190.869141" xlink:href="#DejaVuSans-48"/>
       <use x="254.492188" xlink:href="#DejaVuSans-45"/>
       <use x="290.576172" xlink:href="#DejaVuSans-48"/>
       <use x="354.199219" xlink:href="#DejaVuSans-54"/>
       <use x="417.822266" xlink:href="#DejaVuSans-45"/>
       <use x="453.90625" xlink:href="#DejaVuSans-50"/>
       <use x="517.529297" xlink:href="#DejaVuSans-53"/>
      </g>
     </g>
    </g>
    <g id="xtick_31">
     <g id="line2d_31">
      <g>
       <use style="stroke:#000000;stroke-width:0.8;" x="484.997158" xlink:href="#m3d7934bae3" y="335.5"/>
      </g>
     </g>
     <g id="text_31">
      <!-- 2020-06-29 -->
      <g transform="translate(487.756533 400.615625)rotate(-90)scale(0.1 -0.1)">
       <use xlink:href="#DejaVuSans-50"/>
       <use x="63.623047" xlink:href="#DejaVuSans-48"/>
       <use x="127.246094" xlink:href="#DejaVuSans-50"/>
       <use x="190.869141" xlink:href="#DejaVuSans-48"/>
       <use x="254.492188" xlink:href="#DejaVuSans-45"/>
       <use x="290.576172" xlink:href="#DejaVuSans-48"/>
       <use x="354.199219" xlink:href="#DejaVuSans-54"/>
       <use x="417.822266" xlink:href="#DejaVuSans-45"/>
       <use x="453.90625" xlink:href="#DejaVuSans-50"/>
       <use x="517.529297" xlink:href="#DejaVuSans-57"/>
      </g>
     </g>
    </g>
    <g id="xtick_32">
     <g id="line2d_32">
      <g>
       <use style="stroke:#000000;stroke-width:0.8;" x="497.923548" xlink:href="#m3d7934bae3" y="335.5"/>
      </g>
     </g>
     <g id="text_32">
      <!-- 2020-07-03 -->
      <g transform="translate(500.682923 400.615625)rotate(-90)scale(0.1 -0.1)">
       <use xlink:href="#DejaVuSans-50"/>
       <use x="63.623047" xlink:href="#DejaVuSans-48"/>
       <use x="127.246094" xlink:href="#DejaVuSans-50"/>
       <use x="190.869141" xlink:href="#DejaVuSans-48"/>
       <use x="254.492188" xlink:href="#DejaVuSans-45"/>
       <use x="290.576172" xlink:href="#DejaVuSans-48"/>
       <use x="354.199219" xlink:href="#DejaVuSans-55"/>
       <use x="417.822266" xlink:href="#DejaVuSans-45"/>
       <use x="453.90625" xlink:href="#DejaVuSans-48"/>
       <use x="517.529297" xlink:href="#DejaVuSans-51"/>
      </g>
     </g>
    </g>
    <g id="xtick_33">
     <g id="line2d_33">
      <g>
       <use style="stroke:#000000;stroke-width:0.8;" x="510.849938" xlink:href="#m3d7934bae3" y="335.5"/>
      </g>
     </g>
     <g id="text_33">
      <!-- 2020-07-07 -->
      <g transform="translate(513.609313 400.615625)rotate(-90)scale(0.1 -0.1)">
       <use xlink:href="#DejaVuSans-50"/>
       <use x="63.623047" xlink:href="#DejaVuSans-48"/>
       <use x="127.246094" xlink:href="#DejaVuSans-50"/>
       <use x="190.869141" xlink:href="#DejaVuSans-48"/>
       <use x="254.492188" xlink:href="#DejaVuSans-45"/>
       <use x="290.576172" xlink:href="#DejaVuSans-48"/>
       <use x="354.199219" xlink:href="#DejaVuSans-55"/>
       <use x="417.822266" xlink:href="#DejaVuSans-45"/>
       <use x="453.90625" xlink:href="#DejaVuSans-48"/>
       <use x="517.529297" xlink:href="#DejaVuSans-55"/>
      </g>
     </g>
    </g>
    <g id="xtick_34">
     <g id="line2d_34">
      <g>
       <use style="stroke:#000000;stroke-width:0.8;" x="523.776328" xlink:href="#m3d7934bae3" y="335.5"/>
      </g>
     </g>
     <g id="text_34">
      <!-- 2020-07-11 -->
      <g transform="translate(526.535703 400.615625)rotate(-90)scale(0.1 -0.1)">
       <use xlink:href="#DejaVuSans-50"/>
       <use x="63.623047" xlink:href="#DejaVuSans-48"/>
       <use x="127.246094" xlink:href="#DejaVuSans-50"/>
       <use x="190.869141" xlink:href="#DejaVuSans-48"/>
       <use x="254.492188" xlink:href="#DejaVuSans-45"/>
       <use x="290.576172" xlink:href="#DejaVuSans-48"/>
       <use x="354.199219" xlink:href="#DejaVuSans-55"/>
       <use x="417.822266" xlink:href="#DejaVuSans-45"/>
       <use x="453.90625" xlink:href="#DejaVuSans-49"/>
       <use x="517.529297" xlink:href="#DejaVuSans-49"/>
      </g>
     </g>
    </g>
    <g id="xtick_35">
     <g id="line2d_35">
      <g>
       <use style="stroke:#000000;stroke-width:0.8;" x="536.702718" xlink:href="#m3d7934bae3" y="335.5"/>
      </g>
     </g>
     <g id="text_35">
      <!-- 2020-07-15 -->
      <g transform="translate(539.462093 400.615625)rotate(-90)scale(0.1 -0.1)">
       <use xlink:href="#DejaVuSans-50"/>
       <use x="63.623047" xlink:href="#DejaVuSans-48"/>
       <use x="127.246094" xlink:href="#DejaVuSans-50"/>
       <use x="190.869141" xlink:href="#DejaVuSans-48"/>
       <use x="254.492188" xlink:href="#DejaVuSans-45"/>
       <use x="290.576172" xlink:href="#DejaVuSans-48"/>
       <use x="354.199219" xlink:href="#DejaVuSans-55"/>
       <use x="417.822266" xlink:href="#DejaVuSans-45"/>
       <use x="453.90625" xlink:href="#DejaVuSans-49"/>
       <use x="517.529297" xlink:href="#DejaVuSans-53"/>
      </g>
     </g>
    </g>
    <g id="xtick_36">
     <g id="line2d_36">
      <g>
       <use style="stroke:#000000;stroke-width:0.8;" x="549.629109" xlink:href="#m3d7934bae3" y="335.5"/>
      </g>
     </g>
     <g id="text_36">
      <!-- 2020-07-19 -->
      <g transform="translate(552.388484 400.615625)rotate(-90)scale(0.1 -0.1)">
       <use xlink:href="#DejaVuSans-50"/>
       <use x="63.623047" xlink:href="#DejaVuSans-48"/>
       <use x="127.246094" xlink:href="#DejaVuSans-50"/>
       <use x="190.869141" xlink:href="#DejaVuSans-48"/>
       <use x="254.492188" xlink:href="#DejaVuSans-45"/>
       <use x="290.576172" xlink:href="#DejaVuSans-48"/>
       <use x="354.199219" xlink:href="#DejaVuSans-55"/>
       <use x="417.822266" xlink:href="#DejaVuSans-45"/>
       <use x="453.90625" xlink:href="#DejaVuSans-49"/>
       <use x="517.529297" xlink:href="#DejaVuSans-57"/>
      </g>
     </g>
    </g>
    <g id="xtick_37">
     <g id="line2d_37">
      <g>
       <use style="stroke:#000000;stroke-width:0.8;" x="562.555499" xlink:href="#m3d7934bae3" y="335.5"/>
      </g>
     </g>
     <g id="text_37">
      <!-- 2020-07-23 -->
      <g transform="translate(565.314874 400.615625)rotate(-90)scale(0.1 -0.1)">
       <use xlink:href="#DejaVuSans-50"/>
       <use x="63.623047" xlink:href="#DejaVuSans-48"/>
       <use x="127.246094" xlink:href="#DejaVuSans-50"/>
       <use x="190.869141" xlink:href="#DejaVuSans-48"/>
       <use x="254.492188" xlink:href="#DejaVuSans-45"/>
       <use x="290.576172" xlink:href="#DejaVuSans-48"/>
       <use x="354.199219" xlink:href="#DejaVuSans-55"/>
       <use x="417.822266" xlink:href="#DejaVuSans-45"/>
       <use x="453.90625" xlink:href="#DejaVuSans-50"/>
       <use x="517.529297" xlink:href="#DejaVuSans-51"/>
      </g>
     </g>
    </g>
    <g id="xtick_38">
     <g id="line2d_38">
      <g>
       <use style="stroke:#000000;stroke-width:0.8;" x="575.481889" xlink:href="#m3d7934bae3" y="335.5"/>
      </g>
     </g>
     <g id="text_38">
      <!-- 2020-07-27 -->
      <g transform="translate(578.241264 400.615625)rotate(-90)scale(0.1 -0.1)">
       <use xlink:href="#DejaVuSans-50"/>
       <use x="63.623047" xlink:href="#DejaVuSans-48"/>
       <use x="127.246094" xlink:href="#DejaVuSans-50"/>
       <use x="190.869141" xlink:href="#DejaVuSans-48"/>
       <use x="254.492188" xlink:href="#DejaVuSans-45"/>
       <use x="290.576172" xlink:href="#DejaVuSans-48"/>
       <use x="354.199219" xlink:href="#DejaVuSans-55"/>
       <use x="417.822266" xlink:href="#DejaVuSans-45"/>
       <use x="453.90625" xlink:href="#DejaVuSans-50"/>
       <use x="517.529297" xlink:href="#DejaVuSans-55"/>
      </g>
     </g>
    </g>
    <g id="xtick_39">
     <g id="line2d_39">
      <g>
       <use style="stroke:#000000;stroke-width:0.8;" x="588.408279" xlink:href="#m3d7934bae3" y="335.5"/>
      </g>
     </g>
     <g id="text_39">
      <!-- 2020-07-31 -->
      <g transform="translate(591.167654 400.615625)rotate(-90)scale(0.1 -0.1)">
       <use xlink:href="#DejaVuSans-50"/>
       <use x="63.623047" xlink:href="#DejaVuSans-48"/>
       <use x="127.246094" xlink:href="#DejaVuSans-50"/>
       <use x="190.869141" xlink:href="#DejaVuSans-48"/>
       <use x="254.492188" xlink:href="#DejaVuSans-45"/>
       <use x="290.576172" xlink:href="#DejaVuSans-48"/>
       <use x="354.199219" xlink:href="#DejaVuSans-55"/>
       <use x="417.822266" xlink:href="#DejaVuSans-45"/>
       <use x="453.90625" xlink:href="#DejaVuSans-51"/>
       <use x="517.529297" xlink:href="#DejaVuSans-49"/>
      </g>
     </g>
    </g>
    <g id="xtick_40">
     <g id="line2d_40">
      <g>
       <use style="stroke:#000000;stroke-width:0.8;" x="601.334669" xlink:href="#m3d7934bae3" y="335.5"/>
      </g>
     </g>
     <g id="text_40">
      <!-- 2020-08-04 -->
      <g transform="translate(604.094044 400.615625)rotate(-90)scale(0.1 -0.1)">
       <use xlink:href="#DejaVuSans-50"/>
       <use x="63.623047" xlink:href="#DejaVuSans-48"/>
       <use x="127.246094" xlink:href="#DejaVuSans-50"/>
       <use x="190.869141" xlink:href="#DejaVuSans-48"/>
       <use x="254.492188" xlink:href="#DejaVuSans-45"/>
       <use x="290.576172" xlink:href="#DejaVuSans-48"/>
       <use x="354.199219" xlink:href="#DejaVuSans-56"/>
       <use x="417.822266" xlink:href="#DejaVuSans-45"/>
       <use x="453.90625" xlink:href="#DejaVuSans-48"/>
       <use x="517.529297" xlink:href="#DejaVuSans-52"/>
      </g>
     </g>
    </g>
    <g id="xtick_41">
     <g id="line2d_41">
      <g>
       <use style="stroke:#000000;stroke-width:0.8;" x="614.261059" xlink:href="#m3d7934bae3" y="335.5"/>
      </g>
     </g>
     <g id="text_41">
      <!-- 2020-08-08 -->
      <g transform="translate(617.020434 400.615625)rotate(-90)scale(0.1 -0.1)">
       <use xlink:href="#DejaVuSans-50"/>
       <use x="63.623047" xlink:href="#DejaVuSans-48"/>
       <use x="127.246094" xlink:href="#DejaVuSans-50"/>
       <use x="190.869141" xlink:href="#DejaVuSans-48"/>
       <use x="254.492188" xlink:href="#DejaVuSans-45"/>
       <use x="290.576172" xlink:href="#DejaVuSans-48"/>
       <use x="354.199219" xlink:href="#DejaVuSans-56"/>
       <use x="417.822266" xlink:href="#DejaVuSans-45"/>
       <use x="453.90625" xlink:href="#DejaVuSans-48"/>
       <use x="517.529297" xlink:href="#DejaVuSans-56"/>
      </g>
     </g>
    </g>
    <g id="xtick_42">
     <g id="line2d_42">
      <g>
       <use style="stroke:#000000;stroke-width:0.8;" x="627.187449" xlink:href="#m3d7934bae3" y="335.5"/>
      </g>
     </g>
     <g id="text_42">
      <!-- 2020-08-12 -->
      <g transform="translate(629.946824 400.615625)rotate(-90)scale(0.1 -0.1)">
       <use xlink:href="#DejaVuSans-50"/>
       <use x="63.623047" xlink:href="#DejaVuSans-48"/>
       <use x="127.246094" xlink:href="#DejaVuSans-50"/>
       <use x="190.869141" xlink:href="#DejaVuSans-48"/>
       <use x="254.492188" xlink:href="#DejaVuSans-45"/>
       <use x="290.576172" xlink:href="#DejaVuSans-48"/>
       <use x="354.199219" xlink:href="#DejaVuSans-56"/>
       <use x="417.822266" xlink:href="#DejaVuSans-45"/>
       <use x="453.90625" xlink:href="#DejaVuSans-49"/>
       <use x="517.529297" xlink:href="#DejaVuSans-50"/>
      </g>
     </g>
    </g>
    <g id="xtick_43">
     <g id="line2d_43">
      <g>
       <use style="stroke:#000000;stroke-width:0.8;" x="640.113839" xlink:href="#m3d7934bae3" y="335.5"/>
      </g>
     </g>
     <g id="text_43">
      <!-- 2020-08-16 -->
      <g transform="translate(642.873214 400.615625)rotate(-90)scale(0.1 -0.1)">
       <use xlink:href="#DejaVuSans-50"/>
       <use x="63.623047" xlink:href="#DejaVuSans-48"/>
       <use x="127.246094" xlink:href="#DejaVuSans-50"/>
       <use x="190.869141" xlink:href="#DejaVuSans-48"/>
       <use x="254.492188" xlink:href="#DejaVuSans-45"/>
       <use x="290.576172" xlink:href="#DejaVuSans-48"/>
       <use x="354.199219" xlink:href="#DejaVuSans-56"/>
       <use x="417.822266" xlink:href="#DejaVuSans-45"/>
       <use x="453.90625" xlink:href="#DejaVuSans-49"/>
       <use x="517.529297" xlink:href="#DejaVuSans-54"/>
      </g>
     </g>
    </g>
    <g id="xtick_44">
     <g id="line2d_44">
      <g>
       <use style="stroke:#000000;stroke-width:0.8;" x="653.040229" xlink:href="#m3d7934bae3" y="335.5"/>
      </g>
     </g>
     <g id="text_44">
      <!-- 2020-08-20 -->
      <g transform="translate(655.799604 400.615625)rotate(-90)scale(0.1 -0.1)">
       <use xlink:href="#DejaVuSans-50"/>
       <use x="63.623047" xlink:href="#DejaVuSans-48"/>
       <use x="127.246094" xlink:href="#DejaVuSans-50"/>
       <use x="190.869141" xlink:href="#DejaVuSans-48"/>
       <use x="254.492188" xlink:href="#DejaVuSans-45"/>
       <use x="290.576172" xlink:href="#DejaVuSans-48"/>
       <use x="354.199219" xlink:href="#DejaVuSans-56"/>
       <use x="417.822266" xlink:href="#DejaVuSans-45"/>
       <use x="453.90625" xlink:href="#DejaVuSans-50"/>
       <use x="517.529297" xlink:href="#DejaVuSans-48"/>
      </g>
     </g>
    </g>
    <g id="xtick_45">
     <g id="line2d_45">
      <g>
       <use style="stroke:#000000;stroke-width:0.8;" x="665.96662" xlink:href="#m3d7934bae3" y="335.5"/>
      </g>
     </g>
     <g id="text_45">
      <!-- 2020-08-24 -->
      <g transform="translate(668.725995 400.615625)rotate(-90)scale(0.1 -0.1)">
       <use xlink:href="#DejaVuSans-50"/>
       <use x="63.623047" xlink:href="#DejaVuSans-48"/>
       <use x="127.246094" xlink:href="#DejaVuSans-50"/>
       <use x="190.869141" xlink:href="#DejaVuSans-48"/>
       <use x="254.492188" xlink:href="#DejaVuSans-45"/>
       <use x="290.576172" xlink:href="#DejaVuSans-48"/>
       <use x="354.199219" xlink:href="#DejaVuSans-56"/>
       <use x="417.822266" xlink:href="#DejaVuSans-45"/>
       <use x="453.90625" xlink:href="#DejaVuSans-50"/>
       <use x="517.529297" xlink:href="#DejaVuSans-52"/>
      </g>
     </g>
    </g>
    <g id="xtick_46">
     <g id="line2d_46">
      <g>
       <use style="stroke:#000000;stroke-width:0.8;" x="678.89301" xlink:href="#m3d7934bae3" y="335.5"/>
      </g>
     </g>
     <g id="text_46">
      <!-- 2020-08-28 -->
      <g transform="translate(681.652385 400.615625)rotate(-90)scale(0.1 -0.1)">
       <use xlink:href="#DejaVuSans-50"/>
       <use x="63.623047" xlink:href="#DejaVuSans-48"/>
       <use x="127.246094" xlink:href="#DejaVuSans-50"/>
       <use x="190.869141" xlink:href="#DejaVuSans-48"/>
       <use x="254.492188" xlink:href="#DejaVuSans-45"/>
       <use x="290.576172" xlink:href="#DejaVuSans-48"/>
       <use x="354.199219" xlink:href="#DejaVuSans-56"/>
       <use x="417.822266" xlink:href="#DejaVuSans-45"/>
       <use x="453.90625" xlink:href="#DejaVuSans-50"/>
       <use x="517.529297" xlink:href="#DejaVuSans-56"/>
      </g>
     </g>
    </g>
    <g id="xtick_47">
     <g id="line2d_47">
      <g>
       <use style="stroke:#000000;stroke-width:0.8;" x="691.8194" xlink:href="#m3d7934bae3" y="335.5"/>
      </g>
     </g>
     <g id="text_47">
      <!-- 2020-09-01 -->
      <g transform="translate(694.578775 400.615625)rotate(-90)scale(0.1 -0.1)">
       <use xlink:href="#DejaVuSans-50"/>
       <use x="63.623047" xlink:href="#DejaVuSans-48"/>
       <use x="127.246094" xlink:href="#DejaVuSans-50"/>
       <use x="190.869141" xlink:href="#DejaVuSans-48"/>
       <use x="254.492188" xlink:href="#DejaVuSans-45"/>
       <use x="290.576172" xlink:href="#DejaVuSans-48"/>
       <use x="354.199219" xlink:href="#DejaVuSans-57"/>
       <use x="417.822266" xlink:href="#DejaVuSans-45"/>
       <use x="453.90625" xlink:href="#DejaVuSans-48"/>
       <use x="517.529297" xlink:href="#DejaVuSans-49"/>
      </g>
     </g>
    </g>
    <g id="xtick_48">
     <g id="line2d_48">
      <g>
       <use style="stroke:#000000;stroke-width:0.8;" x="704.74579" xlink:href="#m3d7934bae3" y="335.5"/>
      </g>
     </g>
     <g id="text_48">
      <!-- 2020-09-05 -->
      <g transform="translate(707.505165 400.615625)rotate(-90)scale(0.1 -0.1)">
       <use xlink:href="#DejaVuSans-50"/>
       <use x="63.623047" xlink:href="#DejaVuSans-48"/>
       <use x="127.246094" xlink:href="#DejaVuSans-50"/>
       <use x="190.869141" xlink:href="#DejaVuSans-48"/>
       <use x="254.492188" xlink:href="#DejaVuSans-45"/>
       <use x="290.576172" xlink:href="#DejaVuSans-48"/>
       <use x="354.199219" xlink:href="#DejaVuSans-57"/>
       <use x="417.822266" xlink:href="#DejaVuSans-45"/>
       <use x="453.90625" xlink:href="#DejaVuSans-48"/>
       <use x="517.529297" xlink:href="#DejaVuSans-53"/>
      </g>
     </g>
    </g>
    <g id="xtick_49">
     <g id="line2d_49">
      <g>
       <use style="stroke:#000000;stroke-width:0.8;" x="717.67218" xlink:href="#m3d7934bae3" y="335.5"/>
      </g>
     </g>
     <g id="text_49">
      <!-- 2020-09-09 -->
      <g transform="translate(720.431555 400.615625)rotate(-90)scale(0.1 -0.1)">
       <use xlink:href="#DejaVuSans-50"/>
       <use x="63.623047" xlink:href="#DejaVuSans-48"/>
       <use x="127.246094" xlink:href="#DejaVuSans-50"/>
       <use x="190.869141" xlink:href="#DejaVuSans-48"/>
       <use x="254.492188" xlink:href="#DejaVuSans-45"/>
       <use x="290.576172" xlink:href="#DejaVuSans-48"/>
       <use x="354.199219" xlink:href="#DejaVuSans-57"/>
       <use x="417.822266" xlink:href="#DejaVuSans-45"/>
       <use x="453.90625" xlink:href="#DejaVuSans-48"/>
       <use x="517.529297" xlink:href="#DejaVuSans-57"/>
      </g>
     </g>
    </g>
    <g id="xtick_50">
     <g id="line2d_50">
      <g>
       <use style="stroke:#000000;stroke-width:0.8;" x="730.59857" xlink:href="#m3d7934bae3" y="335.5"/>
      </g>
     </g>
     <g id="text_50">
      <!-- 2020-09-13 -->
      <g transform="translate(733.357945 400.615625)rotate(-90)scale(0.1 -0.1)">
       <use xlink:href="#DejaVuSans-50"/>
       <use x="63.623047" xlink:href="#DejaVuSans-48"/>
       <use x="127.246094" xlink:href="#DejaVuSans-50"/>
       <use x="190.869141" xlink:href="#DejaVuSans-48"/>
       <use x="254.492188" xlink:href="#DejaVuSans-45"/>
       <use x="290.576172" xlink:href="#DejaVuSans-48"/>
       <use x="354.199219" xlink:href="#DejaVuSans-57"/>
       <use x="417.822266" xlink:href="#DejaVuSans-45"/>
       <use x="453.90625" xlink:href="#DejaVuSans-49"/>
       <use x="517.529297" xlink:href="#DejaVuSans-51"/>
      </g>
     </g>
    </g>
    <g id="xtick_51">
     <g id="line2d_51">
      <g>
       <use style="stroke:#000000;stroke-width:0.8;" x="743.52496" xlink:href="#m3d7934bae3" y="335.5"/>
      </g>
     </g>
     <g id="text_51">
      <!-- 2020-09-17 -->
      <g transform="translate(746.284335 400.615625)rotate(-90)scale(0.1 -0.1)">
       <use xlink:href="#DejaVuSans-50"/>
       <use x="63.623047" xlink:href="#DejaVuSans-48"/>
       <use x="127.246094" xlink:href="#DejaVuSans-50"/>
       <use x="190.869141" xlink:href="#DejaVuSans-48"/>
       <use x="254.492188" xlink:href="#DejaVuSans-45"/>
       <use x="290.576172" xlink:href="#DejaVuSans-48"/>
       <use x="354.199219" xlink:href="#DejaVuSans-57"/>
       <use x="417.822266" xlink:href="#DejaVuSans-45"/>
       <use x="453.90625" xlink:href="#DejaVuSans-49"/>
       <use x="517.529297" xlink:href="#DejaVuSans-55"/>
      </g>
     </g>
    </g>
    <g id="xtick_52">
     <g id="line2d_52">
      <g>
       <use style="stroke:#000000;stroke-width:0.8;" x="756.45135" xlink:href="#m3d7934bae3" y="335.5"/>
      </g>
     </g>
     <g id="text_52">
      <!-- 2020-09-21 -->
      <g transform="translate(759.210725 400.615625)rotate(-90)scale(0.1 -0.1)">
       <use xlink:href="#DejaVuSans-50"/>
       <use x="63.623047" xlink:href="#DejaVuSans-48"/>
       <use x="127.246094" xlink:href="#DejaVuSans-50"/>
       <use x="190.869141" xlink:href="#DejaVuSans-48"/>
       <use x="254.492188" xlink:href="#DejaVuSans-45"/>
       <use x="290.576172" xlink:href="#DejaVuSans-48"/>
       <use x="354.199219" xlink:href="#DejaVuSans-57"/>
       <use x="417.822266" xlink:href="#DejaVuSans-45"/>
       <use x="453.90625" xlink:href="#DejaVuSans-50"/>
       <use x="517.529297" xlink:href="#DejaVuSans-49"/>
      </g>
     </g>
    </g>
    <g id="text_53">
     <!-- Date -->
     <g transform="translate(410.93875 416.773125)scale(0.16 -0.16)">
      <defs>
       <path d="M 19.671875 64.796875 
L 19.671875 8.109375 
L 31.59375 8.109375 
Q 46.6875 8.109375 53.6875 14.9375 
Q 60.6875 21.78125 60.6875 36.53125 
Q 60.6875 51.171875 53.6875 57.984375 
Q 46.6875 64.796875 31.59375 64.796875 
z
M 9.8125 72.90625 
L 30.078125 72.90625 
Q 51.265625 72.90625 61.171875 64.09375 
Q 71.09375 55.28125 71.09375 36.53125 
Q 71.09375 17.671875 61.125 8.828125 
Q 51.171875 0 30.078125 0 
L 9.8125 0 
z
" id="DejaVuSans-68"/>
       <path d="M 34.28125 27.484375 
Q 23.390625 27.484375 19.1875 25 
Q 14.984375 22.515625 14.984375 16.5 
Q 14.984375 11.71875 18.140625 8.90625 
Q 21.296875 6.109375 26.703125 6.109375 
Q 34.1875 6.109375 38.703125 11.40625 
Q 43.21875 16.703125 43.21875 25.484375 
L 43.21875 27.484375 
z
M 52.203125 31.203125 
L 52.203125 0 
L 43.21875 0 
L 43.21875 8.296875 
Q 40.140625 3.328125 35.546875 0.953125 
Q 30.953125 -1.421875 24.3125 -1.421875 
Q 15.921875 -1.421875 10.953125 3.296875 
Q 6 8.015625 6 15.921875 
Q 6 25.140625 12.171875 29.828125 
Q 18.359375 34.515625 30.609375 34.515625 
L 43.21875 34.515625 
L 43.21875 35.40625 
Q 43.21875 41.609375 39.140625 45 
Q 35.0625 48.390625 27.6875 48.390625 
Q 23 48.390625 18.546875 47.265625 
Q 14.109375 46.140625 10.015625 43.890625 
L 10.015625 52.203125 
Q 14.9375 54.109375 19.578125 55.046875 
Q 24.21875 56 28.609375 56 
Q 40.484375 56 46.34375 49.84375 
Q 52.203125 43.703125 52.203125 31.203125 
z
" id="DejaVuSans-97"/>
       <path d="M 18.3125 70.21875 
L 18.3125 54.6875 
L 36.8125 54.6875 
L 36.8125 47.703125 
L 18.3125 47.703125 
L 18.3125 18.015625 
Q 18.3125 11.328125 20.140625 9.421875 
Q 21.96875 7.515625 27.59375 7.515625 
L 36.8125 7.515625 
L 36.8125 0 
L 27.59375 0 
Q 17.1875 0 13.234375 3.875 
Q 9.28125 7.765625 9.28125 18.015625 
L 9.28125 47.703125 
L 2.6875 47.703125 
L 2.6875 54.6875 
L 9.28125 54.6875 
L 9.28125 70.21875 
z
" id="DejaVuSans-116"/>
       <path d="M 56.203125 29.59375 
L 56.203125 25.203125 
L 14.890625 25.203125 
Q 15.484375 15.921875 20.484375 11.0625 
Q 25.484375 6.203125 34.421875 6.203125 
Q 39.59375 6.203125 44.453125 7.46875 
Q 49.3125 8.734375 54.109375 11.28125 
L 54.109375 2.78125 
Q 49.265625 0.734375 44.1875 -0.34375 
Q 39.109375 -1.421875 33.890625 -1.421875 
Q 20.796875 -1.421875 13.15625 6.1875 
Q 5.515625 13.8125 5.515625 26.8125 
Q 5.515625 40.234375 12.765625 48.109375 
Q 20.015625 56 32.328125 56 
Q 43.359375 56 49.78125 48.890625 
Q 56.203125 41.796875 56.203125 29.59375 
z
M 47.21875 32.234375 
Q 47.125 39.59375 43.09375 43.984375 
Q 39.0625 48.390625 32.421875 48.390625 
Q 24.90625 48.390625 20.390625 44.140625 
Q 15.875 39.890625 15.1875 32.171875 
z
" id="DejaVuSans-101"/>
      </defs>
      <use xlink:href="#DejaVuSans-68"/>
      <use x="77.001953" xlink:href="#DejaVuSans-97"/>
      <use x="138.28125" xlink:href="#DejaVuSans-116"/>
      <use x="177.490234" xlink:href="#DejaVuSans-101"/>
     </g>
    </g>
   </g>
   <g id="matplotlib.axis_2">
    <g id="ytick_1">
     <g id="line2d_53">
      <defs>
       <path d="M 0 0 
L -3.5 0 
" id="m03b42f5415" style="stroke:#000000;stroke-width:0.8;"/>
      </defs>
      <g>
       <use style="stroke:#000000;stroke-width:0.8;" x="63.92" xlink:href="#m03b42f5415" y="321.407108"/>
      </g>
     </g>
     <g id="text_54">
      <!-- 0 -->
      <g transform="translate(50.5575 325.206327)scale(0.1 -0.1)">
       <use xlink:href="#DejaVuSans-48"/>
      </g>
     </g>
    </g>
    <g id="ytick_2">
     <g id="line2d_54">
      <g>
       <use style="stroke:#000000;stroke-width:0.8;" x="63.92" xlink:href="#m03b42f5415" y="281.424814"/>
      </g>
     </g>
     <g id="text_55">
      <!-- 500 -->
      <g transform="translate(37.8325 285.224033)scale(0.1 -0.1)">
       <use xlink:href="#DejaVuSans-53"/>
       <use x="63.623047" xlink:href="#DejaVuSans-48"/>
       <use x="127.246094" xlink:href="#DejaVuSans-48"/>
      </g>
     </g>
    </g>
    <g id="ytick_3">
     <g id="line2d_55">
      <g>
       <use style="stroke:#000000;stroke-width:0.8;" x="63.92" xlink:href="#m03b42f5415" y="241.44252"/>
      </g>
     </g>
     <g id="text_56">
      <!-- 1000 -->
      <g transform="translate(31.47 245.241739)scale(0.1 -0.1)">
       <use xlink:href="#DejaVuSans-49"/>
       <use x="63.623047" xlink:href="#DejaVuSans-48"/>
       <use x="127.246094" xlink:href="#DejaVuSans-48"/>
       <use x="190.869141" xlink:href="#DejaVuSans-48"/>
      </g>
     </g>
    </g>
    <g id="ytick_4">
     <g id="line2d_56">
      <g>
       <use style="stroke:#000000;stroke-width:0.8;" x="63.92" xlink:href="#m03b42f5415" y="201.460226"/>
      </g>
     </g>
     <g id="text_57">
      <!-- 1500 -->
      <g transform="translate(31.47 205.259445)scale(0.1 -0.1)">
       <use xlink:href="#DejaVuSans-49"/>
       <use x="63.623047" xlink:href="#DejaVuSans-53"/>
       <use x="127.246094" xlink:href="#DejaVuSans-48"/>
       <use x="190.869141" xlink:href="#DejaVuSans-48"/>
      </g>
     </g>
    </g>
    <g id="ytick_5">
     <g id="line2d_57">
      <g>
       <use style="stroke:#000000;stroke-width:0.8;" x="63.92" xlink:href="#m03b42f5415" y="161.477933"/>
      </g>
     </g>
     <g id="text_58">
      <!-- 2000 -->
      <g transform="translate(31.47 165.277151)scale(0.1 -0.1)">
       <use xlink:href="#DejaVuSans-50"/>
       <use x="63.623047" xlink:href="#DejaVuSans-48"/>
       <use x="127.246094" xlink:href="#DejaVuSans-48"/>
       <use x="190.869141" xlink:href="#DejaVuSans-48"/>
      </g>
     </g>
    </g>
    <g id="ytick_6">
     <g id="line2d_58">
      <g>
       <use style="stroke:#000000;stroke-width:0.8;" x="63.92" xlink:href="#m03b42f5415" y="121.495639"/>
      </g>
     </g>
     <g id="text_59">
      <!-- 2500 -->
      <g transform="translate(31.47 125.294857)scale(0.1 -0.1)">
       <use xlink:href="#DejaVuSans-50"/>
       <use x="63.623047" xlink:href="#DejaVuSans-53"/>
       <use x="127.246094" xlink:href="#DejaVuSans-48"/>
       <use x="190.869141" xlink:href="#DejaVuSans-48"/>
      </g>
     </g>
    </g>
    <g id="ytick_7">
     <g id="line2d_59">
      <g>
       <use style="stroke:#000000;stroke-width:0.8;" x="63.92" xlink:href="#m03b42f5415" y="81.513345"/>
      </g>
     </g>
     <g id="text_60">
      <!-- 3000 -->
      <g transform="translate(31.47 85.312563)scale(0.1 -0.1)">
       <use xlink:href="#DejaVuSans-51"/>
       <use x="63.623047" xlink:href="#DejaVuSans-48"/>
       <use x="127.246094" xlink:href="#DejaVuSans-48"/>
       <use x="190.869141" xlink:href="#DejaVuSans-48"/>
      </g>
     </g>
    </g>
    <g id="ytick_8">
     <g id="line2d_60">
      <g>
       <use style="stroke:#000000;stroke-width:0.8;" x="63.92" xlink:href="#m03b42f5415" y="41.531051"/>
      </g>
     </g>
     <g id="text_61">
      <!-- 3500 -->
      <g transform="translate(31.47 45.330269)scale(0.1 -0.1)">
       <use xlink:href="#DejaVuSans-51"/>
       <use x="63.623047" xlink:href="#DejaVuSans-53"/>
       <use x="127.246094" xlink:href="#DejaVuSans-48"/>
       <use x="190.869141" xlink:href="#DejaVuSans-48"/>
      </g>
     </g>
    </g>
    <g id="text_62">
     <!-- Cases/100k -->
     <g transform="translate(24.1425 226.81375)rotate(-90)scale(0.16 -0.16)">
      <defs>
       <path d="M 64.40625 67.28125 
L 64.40625 56.890625 
Q 59.421875 61.53125 53.78125 63.8125 
Q 48.140625 66.109375 41.796875 66.109375 
Q 29.296875 66.109375 22.65625 58.46875 
Q 16.015625 50.828125 16.015625 36.375 
Q 16.015625 21.96875 22.65625 14.328125 
Q 29.296875 6.6875 41.796875 6.6875 
Q 48.140625 6.6875 53.78125 8.984375 
Q 59.421875 11.28125 64.40625 15.921875 
L 64.40625 5.609375 
Q 59.234375 2.09375 53.4375 0.328125 
Q 47.65625 -1.421875 41.21875 -1.421875 
Q 24.65625 -1.421875 15.125 8.703125 
Q 5.609375 18.84375 5.609375 36.375 
Q 5.609375 53.953125 15.125 64.078125 
Q 24.65625 74.21875 41.21875 74.21875 
Q 47.75 74.21875 53.53125 72.484375 
Q 59.328125 70.75 64.40625 67.28125 
z
" id="DejaVuSans-67"/>
       <path d="M 44.28125 53.078125 
L 44.28125 44.578125 
Q 40.484375 46.53125 36.375 47.5 
Q 32.28125 48.484375 27.875 48.484375 
Q 21.1875 48.484375 17.84375 46.4375 
Q 14.5 44.390625 14.5 40.28125 
Q 14.5 37.15625 16.890625 35.375 
Q 19.28125 33.59375 26.515625 31.984375 
L 29.59375 31.296875 
Q 39.15625 29.25 43.1875 25.515625 
Q 47.21875 21.78125 47.21875 15.09375 
Q 47.21875 7.46875 41.1875 3.015625 
Q 35.15625 -1.421875 24.609375 -1.421875 
Q 20.21875 -1.421875 15.453125 -0.5625 
Q 10.6875 0.296875 5.421875 2 
L 5.421875 11.28125 
Q 10.40625 8.6875 15.234375 7.390625 
Q 20.0625 6.109375 24.8125 6.109375 
Q 31.15625 6.109375 34.5625 8.28125 
Q 37.984375 10.453125 37.984375 14.40625 
Q 37.984375 18.0625 35.515625 20.015625 
Q 33.0625 21.96875 24.703125 23.78125 
L 21.578125 24.515625 
Q 13.234375 26.265625 9.515625 29.90625 
Q 5.8125 33.546875 5.8125 39.890625 
Q 5.8125 47.609375 11.28125 51.796875 
Q 16.75 56 26.8125 56 
Q 31.78125 56 36.171875 55.265625 
Q 40.578125 54.546875 44.28125 53.078125 
z
" id="DejaVuSans-115"/>
       <path d="M 25.390625 72.90625 
L 33.6875 72.90625 
L 8.296875 -9.28125 
L 0 -9.28125 
z
" id="DejaVuSans-47"/>
       <path d="M 9.078125 75.984375 
L 18.109375 75.984375 
L 18.109375 31.109375 
L 44.921875 54.6875 
L 56.390625 54.6875 
L 27.390625 29.109375 
L 57.625 0 
L 45.90625 0 
L 18.109375 26.703125 
L 18.109375 0 
L 9.078125 0 
z
" id="DejaVuSans-107"/>
      </defs>
      <use xlink:href="#DejaVuSans-67"/>
      <use x="69.824219" xlink:href="#DejaVuSans-97"/>
      <use x="131.103516" xlink:href="#DejaVuSans-115"/>
      <use x="183.203125" xlink:href="#DejaVuSans-101"/>
      <use x="244.726562" xlink:href="#DejaVuSans-115"/>
      <use x="296.826172" xlink:href="#DejaVuSans-47"/>
      <use x="330.517578" xlink:href="#DejaVuSans-49"/>
      <use x="394.140625" xlink:href="#DejaVuSans-48"/>
      <use x="457.763672" xlink:href="#DejaVuSans-48"/>
      <use x="521.386719" xlink:href="#DejaVuSans-107"/>
     </g>
    </g>
   </g>
   <g id="line2d_61">
    <path clip-path="url(#pe74905b4e9)" d="M 97.205455 321.40601 
L 158.605808 321.330206 
L 168.3006 321.150034 
L 184.458588 320.557884 
L 203.848173 319.46367 
L 213.542966 318.69794 
L 220.006161 318.412302 
L 223.237758 318.091508 
L 226.469356 317.988239 
L 229.700953 317.67953 
L 242.627343 317.054422 
L 252.322136 316.222776 
L 274.943319 314.507848 
L 287.869709 313.494931 
L 291.101306 313.004952 
L 307.259294 311.184558 
L 310.490891 310.742918 
L 313.722489 310.481449 
L 316.954086 309.843157 
L 320.185684 309.366361 
L 323.417282 309.191683 
L 329.880477 308.513841 
L 336.343672 307.483347 
L 342.806867 306.431979 
L 355.733257 305.041141 
L 358.964854 304.581922 
L 362.196452 304.26003 
L 365.428049 303.785431 
L 371.891244 303.213056 
L 375.122842 302.969165 
L 381.586037 301.892529 
L 391.28083 299.505254 
L 394.512427 299.299814 
L 397.744025 298.061682 
L 400.975622 296.968567 
L 404.20722 296.339064 
L 407.438817 294.635123 
L 410.670415 293.373921 
L 413.902012 291.828179 
L 417.13361 290.908644 
L 420.365207 290.211027 
L 433.291598 283.205202 
L 436.523195 281.908845 
L 439.754793 280.753109 
L 442.98639 278.234 
L 446.217988 276.18949 
L 449.449585 273.363869 
L 455.91278 266.25917 
L 459.144378 263.547804 
L 462.375975 261.239628 
L 465.607573 257.25168 
L 468.83917 255.263199 
L 472.070768 251.8685 
L 478.533963 244.33754 
L 481.76556 240.152941 
L 484.997158 239.448733 
L 491.460353 228.957024 
L 494.691951 225.284377 
L 497.923548 220.451599 
L 501.155146 217.461187 
L 514.081536 201.977402 
L 520.544731 192.928165 
L 523.776328 189.584002 
L 527.007926 186.850664 
L 530.239523 185.270866 
L 533.471121 180.646823 
L 539.934316 173.391614 
L 543.165914 169.167465 
L 546.397511 166.137504 
L 549.629109 163.59862 
L 552.860706 161.757353 
L 556.092304 158.011098 
L 559.323901 155.891883 
L 562.555499 153.288181 
L 565.787096 149.593562 
L 569.018694 145.56936 
L 578.713486 139.044725 
L 581.945084 136.444319 
L 585.176681 133.64946 
L 588.408279 130.130617 
L 591.639876 126.932569 
L 594.871474 125.335192 
L 601.334669 123.067665 
L 604.566267 121.207721 
L 607.797864 119.544428 
L 611.029462 118.050321 
L 614.261059 116.817682 
L 617.492657 115.872879 
L 620.724254 115.270842 
L 623.955852 114.011837 
L 627.187449 113.196669 
L 630.419047 111.737717 
L 636.882242 109.73825 
L 640.113839 108.767081 
L 643.345437 108.247439 
L 646.577034 107.254297 
L 656.271827 105.063672 
L 659.503425 103.982642 
L 665.96662 103.420154 
L 669.198217 102.462168 
L 672.429815 102.240249 
L 675.661412 101.496491 
L 685.356205 99.823311 
L 688.587802 99.635449 
L 695.050997 98.501685 
L 698.282595 97.330568 
L 701.514192 96.537373 
L 704.74579 95.623331 
L 711.208985 95.125662 
L 714.440583 95.041069 
L 730.59857 92.331901 
L 733.830168 92.098996 
L 737.061765 91.561776 
L 740.293363 90.797145 
L 743.52496 88.872383 
L 746.756558 86.675167 
L 749.988155 86.798211 
L 753.219753 86.285161 
L 756.45135 86.029185 
L 759.682948 85.375513 
L 762.914545 84.894323 
L 762.914545 84.894323 
" style="fill:none;stroke:#1f77b4;stroke-linecap:square;stroke-width:1.5;"/>
   </g>
   <g id="line2d_62">
    <path clip-path="url(#pe74905b4e9)" d="M 97.205455 321.406364 
L 148.911015 321.328922 
L 165.069003 321.034794 
L 171.532198 320.860924 
L 181.22699 320.216449 
L 194.15338 318.896968 
L 200.616575 318.056284 
L 207.079771 317.111723 
L 210.311368 316.812011 
L 216.774563 315.919575 
L 223.237758 315.145162 
L 229.700953 314.341336 
L 245.858941 312.720282 
L 249.090538 312.194202 
L 265.248526 310.870254 
L 268.480124 310.371726 
L 271.711721 310.042228 
L 274.943319 309.9283 
L 284.638111 309.181066 
L 291.101306 308.866461 
L 294.332904 308.480372 
L 307.259294 307.471029 
L 316.954086 306.815756 
L 323.417282 306.295634 
L 326.648879 306.151921 
L 329.880477 305.801574 
L 333.112074 305.623235 
L 349.270062 304.119087 
L 355.733257 303.735976 
L 358.964854 303.28771 
L 371.891244 302.144335 
L 381.586037 301.571344 
L 388.049232 300.774964 
L 397.744025 300.021773 
L 413.902012 297.605084 
L 420.365207 296.837373 
L 423.596805 296.326931 
L 430.06 294.986601 
L 433.291598 294.025659 
L 439.754793 292.620547 
L 449.449585 289.418648 
L 459.144378 285.187301 
L 462.375975 284.09791 
L 465.607573 282.874487 
L 468.83917 280.822666 
L 472.070768 278.959607 
L 475.302365 275.630377 
L 478.533963 272.061749 
L 481.76556 268.885911 
L 484.997158 266.925307 
L 488.228756 264.656799 
L 491.460353 262.213303 
L 494.691951 258.449582 
L 497.923548 254.917068 
L 501.155146 250.651096 
L 504.386743 246.905991 
L 507.618341 244.547011 
L 510.849938 241.811621 
L 514.081536 238.092578 
L 517.313133 234.765954 
L 520.544731 230.50929 
L 523.776328 226.652118 
L 527.007926 220.955717 
L 530.239523 216.255627 
L 533.471121 212.832573 
L 536.702718 209.042046 
L 539.934316 203.842683 
L 543.165914 199.573733 
L 546.397511 195.728475 
L 549.629109 191.082743 
L 552.860706 187.230412 
L 559.323901 180.072678 
L 562.555499 176.256834 
L 569.018694 167.081904 
L 572.250291 163.603003 
L 578.713486 156.855932 
L 581.945084 153.339055 
L 585.176681 149.632299 
L 588.408279 146.278868 
L 591.639876 142.689018 
L 594.871474 140.0441 
L 598.103071 138.274865 
L 604.566267 134.233398 
L 611.029462 128.523593 
L 614.261059 125.358181 
L 617.492657 123.039038 
L 620.724254 121.492074 
L 623.955852 119.321112 
L 627.187449 116.302019 
L 636.882242 109.326347 
L 640.113839 107.919373 
L 643.345437 106.922316 
L 649.808632 103.961304 
L 659.503425 98.916452 
L 662.735022 97.80919 
L 665.96662 96.968506 
L 669.198217 95.973311 
L 675.661412 93.557366 
L 678.89301 92.136989 
L 682.124607 90.946701 
L 685.356205 89.985015 
L 688.587802 89.283203 
L 691.8194 86.46516 
L 695.050997 85.570862 
L 698.282595 84.241329 
L 701.514192 83.050669 
L 704.74579 81.68949 
L 707.977387 80.734877 
L 717.67218 78.606359 
L 720.903778 77.644672 
L 724.135375 76.285727 
L 727.366973 75.098046 
L 730.59857 74.195929 
L 733.830168 73.549593 
L 737.061765 72.389463 
L 740.293363 71.512663 
L 749.988155 67.777611 
L 753.219753 66.839008 
L 756.45135 66.211659 
L 762.914545 64.327751 
L 762.914545 64.327751 
" style="fill:none;stroke:#ff7f0e;stroke-linecap:square;stroke-width:1.5;"/>
   </g>
   <g id="line2d_63">
    <path clip-path="url(#pe74905b4e9)" d="M 123.058235 321.405388 
L 139.216222 321.274659 
L 148.911015 321.069966 
L 155.37421 320.732823 
L 158.605808 320.483407 
L 161.837405 320.094661 
L 165.069003 319.967372 
L 168.3006 319.391134 
L 171.532198 319.019589 
L 174.763795 318.319502 
L 177.995393 317.442244 
L 181.22699 316.683673 
L 184.458588 315.704928 
L 187.690185 315.319622 
L 190.921783 314.485367 
L 197.384978 310.357092 
L 200.616575 305.664619 
L 203.848173 303.691647 
L 207.079771 299.905675 
L 210.311368 299.021536 
L 213.542966 295.834163 
L 216.774563 293.396761 
L 220.006161 292.113555 
L 223.237758 289.958252 
L 226.469356 288.28974 
L 229.700953 286.980733 
L 232.932551 285.981347 
L 236.164148 285.257178 
L 239.395746 284.393681 
L 242.627343 283.648871 
L 249.090538 281.641497 
L 252.322136 280.846804 
L 255.553733 280.248204 
L 258.785331 279.224736 
L 262.016929 278.655378 
L 271.711721 276.341824 
L 274.943319 275.701941 
L 284.638111 274.398094 
L 291.101306 273.168212 
L 294.332904 271.946931 
L 297.564501 271.209002 
L 300.796099 270.864979 
L 310.490891 268.991774 
L 316.954086 268.207402 
L 320.185684 267.240697 
L 326.648879 266.568132 
L 329.880477 266.163905 
L 333.112074 265.111195 
L 336.343672 263.68866 
L 339.575269 263.09006 
L 346.038464 262.066592 
L 355.733257 260.447964 
L 358.964854 258.404468 
L 362.196452 257.6803 
L 368.659647 257.258872 
L 371.891244 256.18724 
L 375.122842 255.609282 
L 378.35444 254.848991 
L 381.586037 254.482607 
L 384.817635 254.482607 
L 388.049232 253.149518 
L 391.28083 252.566399 
L 397.744025 251.128383 
L 404.20722 249.724769 
L 407.438817 248.99028 
L 410.670415 248.135383 
L 413.902012 247.567746 
L 417.13361 247.161798 
L 420.365207 246.195094 
L 426.828402 244.715795 
L 430.06 243.816175 
L 433.291598 241.600668 
L 436.523195 241.022709 
L 442.98639 239.154665 
L 446.217988 237.558398 
L 449.449585 236.251111 
L 452.681183 237.763092 
L 455.91278 236.266592 
L 459.144378 235.590587 
L 462.375975 234.795894 
L 465.607573 232.463419 
L 472.070768 229.33281 
L 475.302365 227.003775 
L 478.533963 227.003775 
L 481.76556 224.480366 
L 484.997158 223.03547 
L 488.228756 221.291274 
L 491.460353 217.708275 
L 494.691951 215.329356 
L 497.923548 212.356998 
L 501.155146 212.356998 
L 504.386743 209.025136 
L 507.618341 207.13129 
L 514.081536 200.553571 
L 517.313133 197.3834 
L 520.544731 192.838857 
L 523.776328 189.111368 
L 527.007926 186.842537 
L 530.239523 183.909742 
L 533.471121 180.099688 
L 536.702718 176.502928 
L 543.165914 168.832936 
L 546.397511 168.832936 
L 552.860706 157.992774 
L 556.092304 155.08406 
L 559.323901 150.314182 
L 562.555499 146.364799 
L 565.787096 142.78008 
L 569.018694 142.78008 
L 572.250291 136.174839 
L 575.481889 132.144611 
L 578.713486 130.216362 
L 588.408279 121.196081 
L 591.639876 121.196081 
L 594.871474 115.232443 
L 598.103071 113.342037 
L 601.334669 107.123822 
L 604.566267 104.567732 
L 607.797864 102.326423 
L 611.029462 99.746251 
L 614.261059 99.746251 
L 617.492657 95.182786 
L 620.724254 94.216082 
L 630.419047 88.224923 
L 633.650644 85.992214 
L 636.882242 85.992214 
L 640.113839 83.960758 
L 643.345437 82.985453 
L 646.577034 81.88458 
L 649.808632 80.515369 
L 656.271827 77.38992 
L 659.503425 77.38992 
L 662.735022 75.28622 
L 665.96662 74.214588 
L 669.198217 73.268525 
L 672.429815 70.853484 
L 675.661412 69.688967 
L 678.89301 68.646577 
L 682.124607 68.646577 
L 685.356205 65.853111 
L 688.587802 65.292354 
L 691.8194 64.107195 
L 695.050997 62.127343 
L 701.514192 59.314955 
L 704.74579 59.314955 
L 707.977387 56.915395 
L 714.440583 55.94353 
L 717.67218 53.258431 
L 720.903778 52.460298 
L 724.135375 51.161612 
L 727.366973 51.161612 
L 730.59857 48.958145 
L 733.830168 48.111848 
L 737.061765 47.473686 
L 740.293363 46.420976 
L 743.52496 45.598761 
L 746.756558 43.914768 
L 749.988155 43.914768 
L 753.219753 42.304741 
L 756.45135 41.886753 
L 759.682948 40.593227 
L 762.914545 39.533636 
L 762.914545 39.533636 
" style="fill:none;stroke:#2ca02c;stroke-linecap:square;stroke-width:1.5;"/>
   </g>
   <g id="line2d_64">
    <path clip-path="url(#pe74905b4e9)" d="M 129.52143 321.404421 
L 152.142613 321.315755 
L 158.605808 321.19216 
L 174.763795 320.396854 
L 184.458588 319.609607 
L 194.15338 318.889532 
L 220.006161 316.025353 
L 223.237758 315.334833 
L 229.700953 314.308457 
L 239.395746 313.11281 
L 245.858941 311.669973 
L 252.322136 310.729576 
L 255.553733 309.923522 
L 262.016929 308.735935 
L 265.248526 308.257676 
L 271.711721 306.806778 
L 274.943319 306.043714 
L 281.406514 305.033459 
L 291.101306 303.096242 
L 294.332904 302.029563 
L 297.564501 301.414275 
L 300.796099 301.121409 
L 307.259294 299.35615 
L 310.490891 298.773104 
L 313.722489 298.06915 
L 316.954086 296.983664 
L 320.185684 296.209852 
L 323.417282 295.879369 
L 326.648879 295.414545 
L 329.880477 294.785822 
L 333.112074 294.296816 
L 336.343672 293.240885 
L 342.806867 291.521302 
L 349.270062 290.691067 
L 358.964854 288.568457 
L 365.428049 286.464655 
L 375.122842 284.514004 
L 381.586037 282.791735 
L 388.049232 280.489106 
L 404.20722 276.912912 
L 407.438817 276.351361 
L 413.902012 275.00525 
L 417.13361 273.6672 
L 423.596805 271.746104 
L 426.828402 271.746104 
L 430.06 270.112501 
L 433.291598 269.421981 
L 436.523195 268.970591 
L 439.754793 268.210213 
L 442.98639 267.261756 
L 446.217988 265.947887 
L 449.449585 264.924198 
L 459.144378 264.924198 
L 462.375975 261.525336 
L 465.607573 259.883672 
L 468.83917 258.47039 
L 472.070768 255.536353 
L 475.302365 254.058586 
L 478.533963 252.809202 
L 481.76556 251.820442 
L 491.460353 246.44406 
L 497.923548 241.650724 
L 501.155146 238.990745 
L 504.386743 238.383518 
L 507.618341 237.424313 
L 510.849938 234.853 
L 517.313133 231.153211 
L 520.544731 228.383071 
L 523.776328 226.241653 
L 527.007926 223.90947 
L 530.239523 222.853538 
L 533.471121 220.537476 
L 536.702718 217.783457 
L 539.934316 214.478634 
L 546.397511 208.973284 
L 549.629109 206.8453 
L 552.860706 203.484054 
L 556.092304 199.091058 
L 559.323901 194.934505 
L 562.555499 192.296021 
L 565.787096 187.970196 
L 569.018694 184.117257 
L 572.250291 180.874232 
L 575.481889 179.11972 
L 578.713486 175.513971 
L 581.945084 171.470265 
L 585.176681 166.701111 
L 591.639876 160.515987 
L 594.871474 158.710426 
L 598.103071 157.173549 
L 601.334669 154.287875 
L 604.566267 150.942749 
L 607.797864 148.374123 
L 611.029462 145.590549 
L 614.261059 142.339463 
L 617.492657 140.923495 
L 620.724254 139.644555 
L 623.955852 137.914225 
L 627.187449 135.009743 
L 630.419047 133.365392 
L 633.650644 130.829008 
L 636.882242 128.612359 
L 640.113839 127.58867 
L 643.345437 126.8471 
L 646.577034 124.711056 
L 649.808632 121.089186 
L 659.503425 113.799768 
L 662.735022 112.117802 
L 665.96662 110.744822 
L 669.198217 108.592658 
L 672.429815 106.163747 
L 678.89301 102.98252 
L 682.124607 101.007687 
L 685.356205 99.269296 
L 688.587802 98.5331 
L 691.8194 96.829639 
L 701.514192 90.502113 
L 704.74579 89.053902 
L 707.977387 87.952294 
L 714.440583 86.633052 
L 717.67218 85.488455 
L 720.903778 84.099355 
L 724.135375 81.807474 
L 727.366973 80.611827 
L 730.59857 79.929367 
L 733.830168 79.542461 
L 737.061765 78.185603 
L 743.52496 74.391775 
L 746.756558 73.056411 
L 749.988155 71.296526 
L 753.219753 70.552269 
L 756.45135 70.036395 
L 759.682948 68.78701 
L 762.914545 67.303871 
L 762.914545 67.303871 
" style="fill:none;stroke:#d62728;stroke-linecap:square;stroke-width:1.5;"/>
   </g>
   <g id="line2d_65">
    <path clip-path="url(#pe74905b4e9)" d="M 135.984625 321.397323 
L 158.605808 321.234236 
L 171.532198 321.012438 
L 181.22699 320.364982 
L 197.384978 319.600104 
L 200.616575 319.335903 
L 203.848173 318.903722 
L 207.079771 318.745528 
L 220.006161 317.333194 
L 223.237758 316.778698 
L 226.469356 316.50145 
L 236.164148 315.201647 
L 239.395746 314.960278 
L 242.627343 314.490587 
L 258.785331 313.125549 
L 271.711721 311.579484 
L 287.869709 310.113331 
L 291.101306 309.880117 
L 294.332904 309.51154 
L 300.796099 308.542803 
L 304.027696 308.177488 
L 307.259294 307.647456 
L 310.490891 307.233214 
L 316.954086 306.101391 
L 323.417282 305.279432 
L 333.112074 303.956796 
L 336.343672 303.302817 
L 342.806867 302.368328 
L 346.038464 302.210134 
L 352.501659 301.223457 
L 355.733257 300.120989 
L 358.964854 299.530614 
L 362.196452 299.113111 
L 365.428049 298.331924 
L 368.659647 297.795368 
L 371.891244 296.966886 
L 375.122842 295.883988 
L 378.35444 295.260996 
L 384.817635 293.631756 
L 388.049232 293.096831 
L 394.512427 291.180558 
L 397.744025 290.794042 
L 400.975622 290.663572 
L 404.20722 290.30315 
L 407.438817 289.789426 
L 410.670415 288.719575 
L 420.365207 286.470605 
L 423.596805 285.545901 
L 433.291598 281.286068 
L 436.523195 279.632366 
L 442.98639 277.517127 
L 446.217988 276.864779 
L 449.449585 275.406781 
L 452.681183 274.108608 
L 455.91278 273.216522 
L 462.375975 271.740584 
L 465.607573 270.691935 
L 468.83917 269.114883 
L 472.070768 267.252429 
L 475.302365 265.659069 
L 478.533963 264.191286 
L 481.76556 263.607434 
L 484.997158 260.779505 
L 491.460353 257.86514 
L 494.691951 255.99127 
L 497.923548 253.130723 
L 501.155146 251.504746 
L 504.386743 249.725466 
L 510.849938 246.737712 
L 514.081536 244.818177 
L 517.313133 241.210692 
L 520.544731 239.035111 
L 523.776328 236.688289 
L 527.007926 234.013662 
L 530.239523 230.820418 
L 533.471121 228.031629 
L 536.702718 225.076492 
L 543.165914 218.51387 
L 546.397511 215.018915 
L 549.629109 212.120859 
L 552.860706 209.054822 
L 559.323901 204.289419 
L 562.555499 200.376962 
L 565.787096 197.452811 
L 569.018694 193.987212 
L 572.250291 192.088879 
L 575.481889 189.119064 
L 578.713486 187.078845 
L 581.945084 184.769533 
L 588.408279 178.342273 
L 591.639876 175.690478 
L 594.871474 172.273805 
L 598.103071 170.289035 
L 601.334669 168.5913 
L 604.566267 167.038711 
L 607.797864 163.878084 
L 611.029462 161.090927 
L 614.261059 158.037938 
L 617.492657 156.144497 
L 620.724254 153.39485 
L 623.955852 152.039597 
L 627.187449 150.514733 
L 633.650644 148.030918 
L 636.882242 145.958082 
L 640.113839 144.566949 
L 643.345437 143.635722 
L 646.577034 141.422631 
L 649.808632 139.600949 
L 653.040229 138.017374 
L 656.271827 136.088054 
L 659.503425 134.620271 
L 662.735022 133.759172 
L 665.96662 131.068236 
L 669.198217 130.200613 
L 672.429815 126.919302 
L 675.661412 124.034292 
L 678.89301 122.139221 
L 682.124607 119.360218 
L 685.356205 117.165066 
L 688.587802 115.82286 
L 691.8194 113.281964 
L 695.050997 112.265932 
L 701.514192 108.753037 
L 704.74579 106.45351 
L 707.977387 105.620136 
L 714.440583 103.513051 
L 717.67218 102.190415 
L 724.135375 98.462246 
L 727.366973 96.924335 
L 730.59857 95.1157 
L 737.061765 92.824327 
L 740.293363 91.31251 
L 743.52496 90.219827 
L 746.756558 88.416085 
L 749.988155 86.294322 
L 759.682948 82.347616 
L 762.914545 81.419651 
L 762.914545 81.419651 
" style="fill:none;stroke:#9467bd;stroke-linecap:square;stroke-width:1.5;"/>
   </g>
   <g id="line2d_66"/>
   <g id="line2d_67"/>
   <g id="line2d_68"/>
   <g id="line2d_69"/>
   <g id="line2d_70"/>
   <g id="line2d_71"/>
   <g id="patch_3">
    <path d="M 63.92 335.5 
L 63.92 25.44 
" style="fill:none;stroke:#000000;stroke-linecap:square;stroke-linejoin:miter;stroke-width:0.8;"/>
   </g>
   <g id="patch_4">
    <path d="M 796.2 335.5 
L 796.2 25.44 
" style="fill:none;stroke:#000000;stroke-linecap:square;stroke-linejoin:miter;stroke-width:0.8;"/>
   </g>
   <g id="patch_5">
    <path d="M 63.92 335.5 
L 796.2 335.5 
" style="fill:none;stroke:#000000;stroke-linecap:square;stroke-linejoin:miter;stroke-width:0.8;"/>
   </g>
   <g id="patch_6">
    <path d="M 63.92 25.44 
L 796.2 25.44 
" style="fill:none;stroke:#000000;stroke-linecap:square;stroke-linejoin:miter;stroke-width:0.8;"/>
   </g>
   <g id="text_63">
    <!-- State Cases per 100k People -->
    <g transform="translate(343.915 19.44)scale(0.12 -0.12)">
     <defs>
      <path d="M 53.515625 70.515625 
L 53.515625 60.890625 
Q 47.90625 63.578125 42.921875 64.890625 
Q 37.9375 66.21875 33.296875 66.21875 
Q 25.25 66.21875 20.875 63.09375 
Q 16.5 59.96875 16.5 54.203125 
Q 16.5 49.359375 19.40625 46.890625 
Q 22.3125 44.4375 30.421875 42.921875 
L 36.375 41.703125 
Q 47.40625 39.59375 52.65625 34.296875 
Q 57.90625 29 57.90625 20.125 
Q 57.90625 9.515625 50.796875 4.046875 
Q 43.703125 -1.421875 29.984375 -1.421875 
Q 24.8125 -1.421875 18.96875 -0.25 
Q 13.140625 0.921875 6.890625 3.21875 
L 6.890625 13.375 
Q 12.890625 10.015625 18.65625 8.296875 
Q 24.421875 6.59375 29.984375 6.59375 
Q 38.421875 6.59375 43.015625 9.90625 
Q 47.609375 13.234375 47.609375 19.390625 
Q 47.609375 24.75 44.3125 27.78125 
Q 41.015625 30.8125 33.5 32.328125 
L 27.484375 33.5 
Q 16.453125 35.6875 11.515625 40.375 
Q 6.59375 45.0625 6.59375 53.421875 
Q 6.59375 63.09375 13.40625 68.65625 
Q 20.21875 74.21875 32.171875 74.21875 
Q 37.3125 74.21875 42.625 73.28125 
Q 47.953125 72.359375 53.515625 70.515625 
z
" id="DejaVuSans-83"/>
      <path id="DejaVuSans-32"/>
      <path d="M 18.109375 8.203125 
L 18.109375 -20.796875 
L 9.078125 -20.796875 
L 9.078125 54.6875 
L 18.109375 54.6875 
L 18.109375 46.390625 
Q 20.953125 51.265625 25.265625 53.625 
Q 29.59375 56 35.59375 56 
Q 45.5625 56 51.78125 48.09375 
Q 58.015625 40.1875 58.015625 27.296875 
Q 58.015625 14.40625 51.78125 6.484375 
Q 45.5625 -1.421875 35.59375 -1.421875 
Q 29.59375 -1.421875 25.265625 0.953125 
Q 20.953125 3.328125 18.109375 8.203125 
z
M 48.6875 27.296875 
Q 48.6875 37.203125 44.609375 42.84375 
Q 40.53125 48.484375 33.40625 48.484375 
Q 26.265625 48.484375 22.1875 42.84375 
Q 18.109375 37.203125 18.109375 27.296875 
Q 18.109375 17.390625 22.1875 11.75 
Q 26.265625 6.109375 33.40625 6.109375 
Q 40.53125 6.109375 44.609375 11.75 
Q 48.6875 17.390625 48.6875 27.296875 
z
" id="DejaVuSans-112"/>
      <path d="M 41.109375 46.296875 
Q 39.59375 47.171875 37.8125 47.578125 
Q 36.03125 48 33.890625 48 
Q 26.265625 48 22.1875 43.046875 
Q 18.109375 38.09375 18.109375 28.8125 
L 18.109375 0 
L 9.078125 0 
L 9.078125 54.6875 
L 18.109375 54.6875 
L 18.109375 46.1875 
Q 20.953125 51.171875 25.484375 53.578125 
Q 30.03125 56 36.53125 56 
Q 37.453125 56 38.578125 55.875 
Q 39.703125 55.765625 41.0625 55.515625 
z
" id="DejaVuSans-114"/>
      <path d="M 19.671875 64.796875 
L 19.671875 37.40625 
L 32.078125 37.40625 
Q 38.96875 37.40625 42.71875 40.96875 
Q 46.484375 44.53125 46.484375 51.125 
Q 46.484375 57.671875 42.71875 61.234375 
Q 38.96875 64.796875 32.078125 64.796875 
z
M 9.8125 72.90625 
L 32.078125 72.90625 
Q 44.34375 72.90625 50.609375 67.359375 
Q 56.890625 61.8125 56.890625 51.125 
Q 56.890625 40.328125 50.609375 34.8125 
Q 44.34375 29.296875 32.078125 29.296875 
L 19.671875 29.296875 
L 19.671875 0 
L 9.8125 0 
z
" id="DejaVuSans-80"/>
      <path d="M 30.609375 48.390625 
Q 23.390625 48.390625 19.1875 42.75 
Q 14.984375 37.109375 14.984375 27.296875 
Q 14.984375 17.484375 19.15625 11.84375 
Q 23.34375 6.203125 30.609375 6.203125 
Q 37.796875 6.203125 41.984375 11.859375 
Q 46.1875 17.53125 46.1875 27.296875 
Q 46.1875 37.015625 41.984375 42.703125 
Q 37.796875 48.390625 30.609375 48.390625 
z
M 30.609375 56 
Q 42.328125 56 49.015625 48.375 
Q 55.71875 40.765625 55.71875 27.296875 
Q 55.71875 13.875 49.015625 6.21875 
Q 42.328125 -1.421875 30.609375 -1.421875 
Q 18.84375 -1.421875 12.171875 6.21875 
Q 5.515625 13.875 5.515625 27.296875 
Q 5.515625 40.765625 12.171875 48.375 
Q 18.84375 56 30.609375 56 
z
" id="DejaVuSans-111"/>
      <path d="M 9.421875 75.984375 
L 18.40625 75.984375 
L 18.40625 0 
L 9.421875 0 
z
" id="DejaVuSans-108"/>
     </defs>
     <use xlink:href="#DejaVuSans-83"/>
     <use x="63.476562" xlink:href="#DejaVuSans-116"/>
     <use x="102.685547" xlink:href="#DejaVuSans-97"/>
     <use x="163.964844" xlink:href="#DejaVuSans-116"/>
     <use x="203.173828" xlink:href="#DejaVuSans-101"/>
     <use x="264.697266" xlink:href="#DejaVuSans-32"/>
     <use x="296.484375" xlink:href="#DejaVuSans-67"/>
     <use x="366.308594" xlink:href="#DejaVuSans-97"/>
     <use x="427.587891" xlink:href="#DejaVuSans-115"/>
     <use x="479.6875" xlink:href="#DejaVuSans-101"/>
     <use x="541.210938" xlink:href="#DejaVuSans-115"/>
     <use x="593.310547" xlink:href="#DejaVuSans-32"/>
     <use x="625.097656" xlink:href="#DejaVuSans-112"/>
     <use x="688.574219" xlink:href="#DejaVuSans-101"/>
     <use x="750.097656" xlink:href="#DejaVuSans-114"/>
     <use x="791.210938" xlink:href="#DejaVuSans-32"/>
     <use x="822.998047" xlink:href="#DejaVuSans-49"/>
     <use x="886.621094" xlink:href="#DejaVuSans-48"/>
     <use x="950.244141" xlink:href="#DejaVuSans-48"/>
     <use x="1013.867188" xlink:href="#DejaVuSans-107"/>
     <use x="1071.777344" xlink:href="#DejaVuSans-32"/>
     <use x="1103.564453" xlink:href="#DejaVuSans-80"/>
     <use x="1160.242188" xlink:href="#DejaVuSans-101"/>
     <use x="1221.765625" xlink:href="#DejaVuSans-111"/>
     <use x="1282.947266" xlink:href="#DejaVuSans-112"/>
     <use x="1346.423828" xlink:href="#DejaVuSans-108"/>
     <use x="1374.207031" xlink:href="#DejaVuSans-101"/>
    </g>
   </g>
   <g id="legend_1">
    <g id="patch_7">
     <path d="M 70.92 121.50875 
L 156.195 121.50875 
Q 158.195 121.50875 158.195 119.50875 
L 158.195 32.44 
Q 158.195 30.44 156.195 30.44 
L 70.92 30.44 
Q 68.92 30.44 68.92 32.44 
L 68.92 119.50875 
Q 68.92 121.50875 70.92 121.50875 
z
" style="fill:#ffffff;opacity:0.8;stroke:#cccccc;stroke-linejoin:miter;"/>
    </g>
    <g id="line2d_72">
     <path d="M 72.92 38.538437 
L 92.92 38.538437 
" style="fill:none;"/>
    </g>
    <g id="line2d_73"/>
    <g id="text_64">
     <!-- state -->
     <g transform="translate(100.92 42.038437)scale(0.1 -0.1)">
      <use xlink:href="#DejaVuSans-115"/>
      <use x="52.099609" xlink:href="#DejaVuSans-116"/>
      <use x="91.308594" xlink:href="#DejaVuSans-97"/>
      <use x="152.587891" xlink:href="#DejaVuSans-116"/>
      <use x="191.796875" xlink:href="#DejaVuSans-101"/>
     </g>
    </g>
    <g id="line2d_74">
     <path d="M 72.92 53.216563 
L 92.92 53.216563 
" style="fill:none;stroke:#1f77b4;stroke-linecap:square;stroke-width:1.5;"/>
    </g>
    <g id="line2d_75"/>
    <g id="text_65">
     <!-- Arizona -->
     <g transform="translate(100.92 56.716563)scale(0.1 -0.1)">
      <defs>
       <path d="M 34.1875 63.1875 
L 20.796875 26.90625 
L 47.609375 26.90625 
z
M 28.609375 72.90625 
L 39.796875 72.90625 
L 67.578125 0 
L 57.328125 0 
L 50.6875 18.703125 
L 17.828125 18.703125 
L 11.1875 0 
L 0.78125 0 
z
" id="DejaVuSans-65"/>
       <path d="M 9.421875 54.6875 
L 18.40625 54.6875 
L 18.40625 0 
L 9.421875 0 
z
M 9.421875 75.984375 
L 18.40625 75.984375 
L 18.40625 64.59375 
L 9.421875 64.59375 
z
" id="DejaVuSans-105"/>
       <path d="M 5.515625 54.6875 
L 48.1875 54.6875 
L 48.1875 46.484375 
L 14.40625 7.171875 
L 48.1875 7.171875 
L 48.1875 0 
L 4.296875 0 
L 4.296875 8.203125 
L 38.09375 47.515625 
L 5.515625 47.515625 
z
" id="DejaVuSans-122"/>
       <path d="M 54.890625 33.015625 
L 54.890625 0 
L 45.90625 0 
L 45.90625 32.71875 
Q 45.90625 40.484375 42.875 44.328125 
Q 39.84375 48.1875 33.796875 48.1875 
Q 26.515625 48.1875 22.3125 43.546875 
Q 18.109375 38.921875 18.109375 30.90625 
L 18.109375 0 
L 9.078125 0 
L 9.078125 54.6875 
L 18.109375 54.6875 
L 18.109375 46.1875 
Q 21.34375 51.125 25.703125 53.5625 
Q 30.078125 56 35.796875 56 
Q 45.21875 56 50.046875 50.171875 
Q 54.890625 44.34375 54.890625 33.015625 
z
" id="DejaVuSans-110"/>
      </defs>
      <use xlink:href="#DejaVuSans-65"/>
      <use x="68.408203" xlink:href="#DejaVuSans-114"/>
      <use x="109.521484" xlink:href="#DejaVuSans-105"/>
      <use x="137.304688" xlink:href="#DejaVuSans-122"/>
      <use x="189.794922" xlink:href="#DejaVuSans-111"/>
      <use x="250.976562" xlink:href="#DejaVuSans-110"/>
      <use x="314.355469" xlink:href="#DejaVuSans-97"/>
     </g>
    </g>
    <g id="line2d_76">
     <path d="M 72.92 67.894687 
L 92.92 67.894687 
" style="fill:none;stroke:#ff7f0e;stroke-linecap:square;stroke-width:1.5;"/>
    </g>
    <g id="line2d_77"/>
    <g id="text_66">
     <!-- Florida -->
     <g transform="translate(100.92 71.394687)scale(0.1 -0.1)">
      <defs>
       <path d="M 9.8125 72.90625 
L 51.703125 72.90625 
L 51.703125 64.59375 
L 19.671875 64.59375 
L 19.671875 43.109375 
L 48.578125 43.109375 
L 48.578125 34.8125 
L 19.671875 34.8125 
L 19.671875 0 
L 9.8125 0 
z
" id="DejaVuSans-70"/>
       <path d="M 45.40625 46.390625 
L 45.40625 75.984375 
L 54.390625 75.984375 
L 54.390625 0 
L 45.40625 0 
L 45.40625 8.203125 
Q 42.578125 3.328125 38.25 0.953125 
Q 33.9375 -1.421875 27.875 -1.421875 
Q 17.96875 -1.421875 11.734375 6.484375 
Q 5.515625 14.40625 5.515625 27.296875 
Q 5.515625 40.1875 11.734375 48.09375 
Q 17.96875 56 27.875 56 
Q 33.9375 56 38.25 53.625 
Q 42.578125 51.265625 45.40625 46.390625 
z
M 14.796875 27.296875 
Q 14.796875 17.390625 18.875 11.75 
Q 22.953125 6.109375 30.078125 6.109375 
Q 37.203125 6.109375 41.296875 11.75 
Q 45.40625 17.390625 45.40625 27.296875 
Q 45.40625 37.203125 41.296875 42.84375 
Q 37.203125 48.484375 30.078125 48.484375 
Q 22.953125 48.484375 18.875 42.84375 
Q 14.796875 37.203125 14.796875 27.296875 
z
" id="DejaVuSans-100"/>
      </defs>
      <use xlink:href="#DejaVuSans-70"/>
      <use x="57.519531" xlink:href="#DejaVuSans-108"/>
      <use x="85.302734" xlink:href="#DejaVuSans-111"/>
      <use x="146.484375" xlink:href="#DejaVuSans-114"/>
      <use x="187.597656" xlink:href="#DejaVuSans-105"/>
      <use x="215.380859" xlink:href="#DejaVuSans-100"/>
      <use x="278.857422" xlink:href="#DejaVuSans-97"/>
     </g>
    </g>
    <g id="line2d_78">
     <path d="M 72.92 82.572812 
L 92.92 82.572812 
" style="fill:none;stroke:#2ca02c;stroke-linecap:square;stroke-width:1.5;"/>
    </g>
    <g id="line2d_79"/>
    <g id="text_67">
     <!-- Louisiana -->
     <g transform="translate(100.92 86.072812)scale(0.1 -0.1)">
      <defs>
       <path d="M 9.8125 72.90625 
L 19.671875 72.90625 
L 19.671875 8.296875 
L 55.171875 8.296875 
L 55.171875 0 
L 9.8125 0 
z
" id="DejaVuSans-76"/>
       <path d="M 8.5 21.578125 
L 8.5 54.6875 
L 17.484375 54.6875 
L 17.484375 21.921875 
Q 17.484375 14.15625 20.5 10.265625 
Q 23.53125 6.390625 29.59375 6.390625 
Q 36.859375 6.390625 41.078125 11.03125 
Q 45.3125 15.671875 45.3125 23.6875 
L 45.3125 54.6875 
L 54.296875 54.6875 
L 54.296875 0 
L 45.3125 0 
L 45.3125 8.40625 
Q 42.046875 3.421875 37.71875 1 
Q 33.40625 -1.421875 27.6875 -1.421875 
Q 18.265625 -1.421875 13.375 4.4375 
Q 8.5 10.296875 8.5 21.578125 
z
M 31.109375 56 
z
" id="DejaVuSans-117"/>
      </defs>
      <use xlink:href="#DejaVuSans-76"/>
      <use x="53.962891" xlink:href="#DejaVuSans-111"/>
      <use x="115.144531" xlink:href="#DejaVuSans-117"/>
      <use x="178.523438" xlink:href="#DejaVuSans-105"/>
      <use x="206.306641" xlink:href="#DejaVuSans-115"/>
      <use x="258.40625" xlink:href="#DejaVuSans-105"/>
      <use x="286.189453" xlink:href="#DejaVuSans-97"/>
      <use x="347.46875" xlink:href="#DejaVuSans-110"/>
      <use x="410.847656" xlink:href="#DejaVuSans-97"/>
     </g>
    </g>
    <g id="line2d_80">
     <path d="M 72.92 97.250937 
L 92.92 97.250937 
" style="fill:none;stroke:#d62728;stroke-linecap:square;stroke-width:1.5;"/>
    </g>
    <g id="line2d_81"/>
    <g id="text_68">
     <!-- Mississippi -->
     <g transform="translate(100.92 100.750937)scale(0.1 -0.1)">
      <defs>
       <path d="M 9.8125 72.90625 
L 24.515625 72.90625 
L 43.109375 23.296875 
L 61.8125 72.90625 
L 76.515625 72.90625 
L 76.515625 0 
L 66.890625 0 
L 66.890625 64.015625 
L 48.09375 14.015625 
L 38.1875 14.015625 
L 19.390625 64.015625 
L 19.390625 0 
L 9.8125 0 
z
" id="DejaVuSans-77"/>
      </defs>
      <use xlink:href="#DejaVuSans-77"/>
      <use x="86.279297" xlink:href="#DejaVuSans-105"/>
      <use x="114.0625" xlink:href="#DejaVuSans-115"/>
      <use x="166.162109" xlink:href="#DejaVuSans-115"/>
      <use x="218.261719" xlink:href="#DejaVuSans-105"/>
      <use x="246.044922" xlink:href="#DejaVuSans-115"/>
      <use x="298.144531" xlink:href="#DejaVuSans-115"/>
      <use x="350.244141" xlink:href="#DejaVuSans-105"/>
      <use x="378.027344" xlink:href="#DejaVuSans-112"/>
      <use x="441.503906" xlink:href="#DejaVuSans-112"/>
      <use x="504.980469" xlink:href="#DejaVuSans-105"/>
     </g>
    </g>
    <g id="line2d_82">
     <path d="M 72.92 111.929062 
L 92.92 111.929062 
" style="fill:none;stroke:#9467bd;stroke-linecap:square;stroke-width:1.5;"/>
    </g>
    <g id="line2d_83"/>
    <g id="text_69">
     <!-- Alabama -->
     <g transform="translate(100.92 115.429062)scale(0.1 -0.1)">
      <defs>
       <path d="M 48.6875 27.296875 
Q 48.6875 37.203125 44.609375 42.84375 
Q 40.53125 48.484375 33.40625 48.484375 
Q 26.265625 48.484375 22.1875 42.84375 
Q 18.109375 37.203125 18.109375 27.296875 
Q 18.109375 17.390625 22.1875 11.75 
Q 26.265625 6.109375 33.40625 6.109375 
Q 40.53125 6.109375 44.609375 11.75 
Q 48.6875 17.390625 48.6875 27.296875 
z
M 18.109375 46.390625 
Q 20.953125 51.265625 25.265625 53.625 
Q 29.59375 56 35.59375 56 
Q 45.5625 56 51.78125 48.09375 
Q 58.015625 40.1875 58.015625 27.296875 
Q 58.015625 14.40625 51.78125 6.484375 
Q 45.5625 -1.421875 35.59375 -1.421875 
Q 29.59375 -1.421875 25.265625 0.953125 
Q 20.953125 3.328125 18.109375 8.203125 
L 18.109375 0 
L 9.078125 0 
L 9.078125 75.984375 
L 18.109375 75.984375 
z
" id="DejaVuSans-98"/>
       <path d="M 52 44.1875 
Q 55.375 50.25 60.0625 53.125 
Q 64.75 56 71.09375 56 
Q 79.640625 56 84.28125 50.015625 
Q 88.921875 44.046875 88.921875 33.015625 
L 88.921875 0 
L 79.890625 0 
L 79.890625 32.71875 
Q 79.890625 40.578125 77.09375 44.375 
Q 74.3125 48.1875 68.609375 48.1875 
Q 61.625 48.1875 57.5625 43.546875 
Q 53.515625 38.921875 53.515625 30.90625 
L 53.515625 0 
L 44.484375 0 
L 44.484375 32.71875 
Q 44.484375 40.625 41.703125 44.40625 
Q 38.921875 48.1875 33.109375 48.1875 
Q 26.21875 48.1875 22.15625 43.53125 
Q 18.109375 38.875 18.109375 30.90625 
L 18.109375 0 
L 9.078125 0 
L 9.078125 54.6875 
L 18.109375 54.6875 
L 18.109375 46.1875 
Q 21.1875 51.21875 25.484375 53.609375 
Q 29.78125 56 35.6875 56 
Q 41.65625 56 45.828125 52.96875 
Q 50 49.953125 52 44.1875 
z
" id="DejaVuSans-109"/>
      </defs>
      <use xlink:href="#DejaVuSans-65"/>
      <use x="68.408203" xlink:href="#DejaVuSans-108"/>
      <use x="96.191406" xlink:href="#DejaVuSans-97"/>
      <use x="157.470703" xlink:href="#DejaVuSans-98"/>
      <use x="220.947266" xlink:href="#DejaVuSans-97"/>
      <use x="282.226562" xlink:href="#DejaVuSans-109"/>
      <use x="379.638672" xlink:href="#DejaVuSans-97"/>
     </g>
    </g>
   </g>
  </g>
 </g>
 <defs>
  <clipPath id="pe74905b4e9">
   <rect height="310.06" width="732.28" x="63.92" y="25.44"/>
  </clipPath>
 </defs>
</svg>
